<svg id="exportSVG" visibility="visible" xmlns="http://www.w3.org/2000/svg" xmlns:xlink="http://www.w3.org/1999/xlink" version="1.1" data-info="draw.ninja" data-name="draw" viewBox="0 0 160 160" width="160" height="160" style="position: fixed; top: 0px; left: 0px;"><defs id="defsExport"><filter id="filter0"><feGaussianBlur stdDeviation="0"></feGaussianBlur></filter><pattern id="patternImage" patternUnits="userSpaceOnUse" x="0" y="0" width="1" height="1" data-x="0" data-y="0" data-width="1" data-height="1" data-multx="1" data-multy="1" patternTransform="matrix(1,0,0,1,0,0)" data-transs="0" data-transf="0" data-source="patternImage" data-draw="1" fill="#B3B3B3" fill-opacity="1"></pattern><pattern id="pattern0" patternUnits="userSpaceOnUse" x="0" y="0" width="10" height="10" data-x="0" data-y="0" data-width="10" data-height="10" data-multx="1" data-multy="1" stroke="none" patternTransform="matrix(1,0,0,1,0,0)" data-transs="0" data-transf="0" data-source="Pattern 0" data-draw="1" fill="#B3B3B3" fill-opacity="1"><path transform="matrix(1,0,0,1,0,0)" d="M0 0 L5 0 L5 5 L0 5 L0 0 Z"></path></pattern><pattern id="pattern1" patternUnits="userSpaceOnUse" x="0" y="0" width="10" height="10" data-x="0" data-y="0" data-width="10" data-height="10" data-multx="1" data-multy="1" stroke="none" patternTransform="matrix(1,0,0,1,0,0)" data-transs="0" data-transf="0" data-source="Pattern 1" data-draw="1" fill="#B3B3B3" fill-opacity="1"><path transform="matrix(1,0,0,1,0,0)" d="M0 5 L5 0 L10 5 L5 10 L0 5 Z"></path></pattern><pattern id="pattern2" patternUnits="userSpaceOnUse" x="0" y="0" width="10" height="10" data-x="0" data-y="0" data-width="10" data-height="10" data-multx="1" data-multy="1" stroke="none" patternTransform="matrix(1,0,0,1,0,0)" data-transs="0" data-transf="0" data-source="Pattern 2" data-draw="1" fill="#B3B3B3" fill-opacity="1"><path transform="matrix(1,0,0,1,0,0)" d="M0 9 L5 1 L10 9 L0 9 Z"></path></pattern><pattern id="pattern3" patternUnits="userSpaceOnUse" x="0" y="0" width="10" height="10" data-x="0" data-y="0" data-width="10" data-height="10" data-multx="1" data-multy="1" stroke="none" patternTransform="matrix(1,0,0,1,0,0)" data-transs="0" data-transf="0" data-source="Pattern 3" data-draw="1" fill="#B3B3B3" fill-opacity="1"><path transform="matrix(1,0,0,1,0,0)" d="M0 5 C0 2.25 2.25 0 5 0 C7.75 0 10 2.25 10 5 C10 7.75 7.75 10 5 10 C2.25 10 0 7.75 0 5 Z"></path></pattern><pattern id="pattern4" patternUnits="userSpaceOnUse" x="0" y="0" width="10" height="10" data-x="0" data-y="0" data-width="10" data-height="10" data-multx="1" data-multy="1" stroke="none" patternTransform="matrix(1,0,0,1,0,0)" data-transs="0" data-transf="0" data-source="Pattern 4" data-draw="1" fill="#B3B3B3" fill-opacity="1"><path transform="matrix(1,0,0,1,0,0)" d="M0 5 L4 4 L5 0 L6 4 L10 5 L6 6 L5 10 L4 6 L0 5 Z"></path></pattern><pattern id="pattern5" patternUnits="userSpaceOnUse" x="0" y="0" width="10" height="10" data-x="0" data-y="0" data-width="10" data-height="10" data-multx="1" data-multy="1" stroke="none" patternTransform="matrix(1,0,0,1,0,0)" data-transs="0" data-transf="0" data-source="Pattern 5" data-draw="1" fill="#B3B3B3" fill-opacity="1"><path transform="matrix(1,0,0,1,0,0)" d="M5 10 C-5 2.75 3 -1.75 5 1 C7 -1.75 15 2.75 5 10 Z"></path></pattern><pattern id="pattern6" patternUnits="userSpaceOnUse" x="0" y="0" width="10" height="10" data-x="0" data-y="0" data-width="10" data-height="10" data-multx="1" data-multy="1" stroke="none" patternTransform="matrix(1,0,0,1,0,0)" data-transs="0" data-transf="0" data-source="Pattern 6" data-draw="1" fill="#B3B3B3" fill-opacity="1"><path transform="matrix(1,0,0,1,0,0)" d="M3 0 L7 0 L7 10 L3 10 L3 0 Z"></path></pattern><pattern id="pattern7" patternUnits="userSpaceOnUse" x="0" y="0" width="10" height="10" data-x="0" data-y="0" data-width="10" data-height="10" data-multx="1" data-multy="1" stroke="none" patternTransform="matrix(1,0,0,1,0,0)" data-transs="0" data-transf="0" data-source="Pattern 7" data-draw="1" fill="#B3B3B3" fill-opacity="1"><path transform="matrix(1,0,0,1,0,0)" d="M10 3 L10 7 L0 7 L0 3 L10 3 Z"></path></pattern><pattern id="pattern8" patternUnits="userSpaceOnUse" x="0" y="0" width="10" height="10" data-x="0" data-y="0" data-width="10" data-height="10" data-multx="1" data-multy="1" stroke="none" patternTransform="matrix(1,0,0,1,0,0)" data-transs="0" data-transf="0" data-source="Pattern 8" data-draw="1" fill="#B3B3B3" fill-opacity="1"><path transform="matrix(1,0,0,1,0,0)" d="M0 10 L3 3 L10 0 L7 7 L0 10 Z"></path></pattern><pattern id="pattern9" patternUnits="userSpaceOnUse" x="0" y="0" width="10" height="10" data-x="0" data-y="0" data-width="10" data-height="10" data-multx="1" data-multy="1" stroke="none" patternTransform="matrix(1,0,0,1,0,0)" data-transs="0" data-transf="0" data-source="Pattern 9" data-draw="1" fill="#B3B3B3" fill-opacity="1"><path transform="matrix(1,0,0,1,0,0)" d="M0 4 L10 4 L10 6 L0 6 L0 4 Z M4 10 L4 0 L6 0 L6 10 L4 10 Z"></path></pattern><linearGradient id="linearSystem" gradientUnits="objectBoundingBox" x1="0%" y1="50%" x2="100%" y2="50%" spreadMethod="pad"><stop offset="50%" stop-color="#D0D0D0" stop-opacity="1"></stop><stop offset="100%" stop-color="transparent" stop-opacity="1"></stop></linearGradient><linearGradient id="linearSystem1" gradientUnits="objectBoundingBox" x1="0%" y1="50%" x2="100%" y2="50%" spreadMethod="pad"><stop offset="30%" stop-color="#D0D0D0" stop-opacity="1"></stop><stop offset="100%" stop-color="transparent" stop-opacity="1"></stop></linearGradient><linearGradient id="linearSystem2" gradientUnits="objectBoundingBox" x1="0%" y1="50%" x2="50%" y2="50%" spreadMethod="repeat"><stop offset="30%" stop-color="#D0D0D0" stop-opacity="1"></stop><stop offset="100%" stop-color="transparent" stop-opacity="1"></stop></linearGradient><linearGradient id="linearSystem3" gradientUnits="objectBoundingBox" x1="0%" y1="50%" x2="50%" y2="50%" spreadMethod="reflect"><stop offset="30%" stop-color="#D0D0D0" stop-opacity="1"></stop><stop offset="100%" stop-color="transparent" stop-opacity="1"></stop></linearGradient><radialGradient id="radialSystem" gradientUnits="objectBoundingBox" r="0.5" cx="0.5" fx="0.5" cy="0.5" fy="0.5" spreadMethod="pad"><stop offset="50%" stop-color="#D0D0D0" stop-opacity="1"></stop><stop offset="100%" stop-color="transparent" stop-opacity="1"></stop></radialGradient><pattern id="patternSystem" patternUnits="userSpaceOnUse" x="0" y="0" width="6" height="8"><path stroke="#D0D0D0" stroke-width="5" fill="none" d="M0 0 L0 10"></path></pattern><linearGradient id="linear0" gradientUnits="objectBoundingBox" x1="0%" y1="50%" x2="100%" y2="50%" spreadMethod="pad"><stop offset="0%" stop-color="#FF8000" stop-opacity="1"></stop><stop offset="100%" stop-color="#FFFF00" stop-opacity="1"></stop></linearGradient><linearGradient id="linear1" gradientUnits="objectBoundingBox" x1="0%" y1="50%" x2="100%" y2="50%" spreadMethod="pad"><stop offset="0%" stop-color="#FFFF00" stop-opacity="1"></stop><stop offset="100%" stop-color="#FF8000" stop-opacity="1"></stop></linearGradient><linearGradient id="linearImport" gradientUnits="objectBoundingBox" x1="0%" y1="50%" x2="100%" y2="50%" spreadMethod="pad"><stop offset="0%" stop-color="#FFFFFF" stop-opacity="0.1"></stop><stop offset="100%" stop-color="#000000" stop-opacity="0.1"></stop></linearGradient><radialGradient id="radial0" gradientUnits="objectBoundingBox" r="0.5" cx="0.5" fx="0.5" cy="0.5" fy="0.5" spreadMethod="pad"><stop offset="0%" stop-color="#FF8000" stop-opacity="1"></stop><stop offset="100%" stop-color="#FFFF00" stop-opacity="1"></stop></radialGradient><radialGradient id="radial1" gradientUnits="objectBoundingBox" r="0.5" cx="0.5" fx="0.5" cy="0.5" fy="0.5" spreadMethod="pad"><stop offset="0%" stop-color="#FFFF00" stop-opacity="1"></stop><stop offset="100%" stop-color="#FF8000" stop-opacity="1"></stop></radialGradient><radialGradient id="radialImport" gradientUnits="objectBoundingBox" r="0.5" cx="0.5" fx="0.5" cy="0.5" fy="0.5" spreadMethod="pad"><stop offset="0%" stop-color="#FFFFFF" stop-opacity="0.1"></stop><stop offset="100%" stop-color="#000000" stop-opacity="0.1"></stop></radialGradient></defs><rect id="pageExport" x="0" y="0" width="160" height="160" fill="none" fill-opacity="0" stroke="none" stroke-width="0"></rect><g id="objectsExport" visibility="visible"><path id="path21" d="M110.579 112.72 C113.766 110.028 117.632 110.536 121.028 109.83 C123.912 109.231 127.004 109.485 129.995 109.59 C133.698 109.719 136.781 112.774 137.908 116.793 C138.948 120.503 137.187 122.794 134.447 124.839 C132.622 126.201 130.622 125.659 128.669 125.684 C127.152 125.704 125.45 125.492 124.969 127.36 C124.645 128.619 124.842 129.953 126.084 130.948 C127.627 132.183 128.89 131.4 130.172 130.608 C132.289 129.3 134.593 128.183 136.414 126.539 C138.406 124.74 139.808 125.548 141.027 127.054 C142.666 129.078 140.686 130.14 139.398 130.924 C137.325 132.187 135.029 133.084 132.702 134.195 C134.566 137.375 137.587 137.908 140.447 138.544 C142.804 139.068 144.384 140.193 143.348 142.613 C142.459 144.69 140.549 145.109 138.298 144.125 C135.372 142.845 132.756 141.103 130.136 139.333 C128.645 138.326 127.314 136.996 125.382 136.771 C124.965 142.725 127.518 145.913 133.161 146.593 C135.804 146.911 138.437 147.308 141.08 147.622 C142.487 147.789 143.807 148.033 143.8 149.836 C143.794 151.349 142.646 151.683 141.445 151.902 C139.977 152.171 138.512 152.669 137.042 152.681 C125.882 152.779 114.722 152.786 103.562 152.814 C95.945 152.833 90.859 148.839 88.33 142.06 C86.844 138.076 86.73 133.594 86.709 129.254 C86.662 119.054 87.843 108.989 90.044 99.036 C90.294 97.907 90.582 96.765 90.635 95.618 C90.953 88.811 97.134 84.606 103.383 87.271 C105.002 87.961 106.234 88.023 107.919 87.857 C118.694 86.799 129.489 86.005 140.336 86.09 C145.544 86.131 149.563 88.52 153.216 91.86 C153.954 92.535 154.525 93.301 154.695 94.375 C157.005 108.911 157.845 123.489 155.836 138.129 C155.404 141.274 154.24 144.239 152.843 147.094 C152.022 148.772 150.925 150.234 149.247 151.13 C147.962 151.816 146.644 151.831 145.613 150.666 C144.643 149.571 145.015 148.201 145.931 147.536 C150.311 144.358 149.449 139.672 149.726 135.289 C150.442 123.961 150.125 112.658 148.809 101.388 C148.579 99.416 148.098 97.466 147.623 95.533 C147.228 93.925 146.083 92.842 144.46 92.768 C137.903 92.469 131.36 93.214 124.742 92.923 C128.635 97.369 134.645 94.351 139.26 97.629 C135.835 103.388 128.606 98.37 124.482 102.794 C130.386 106.642 138.175 101.957 143.395 107.631 C141.025 110.685 137.812 110.052 135.088 109.562 C128.929 108.455 122.854 108.672 116.716 109.443 C111.417 110.109 106.082 109.971 100.756 109.784 C99.614 109.744 98.191 109.758 97.971 108.277 C97.717 106.566 99.092 105.985 100.452 105.747 C104.061 105.116 107.687 104.617 111.367 104.616 C114.192 104.616 116.952 104.295 119.689 102.307 C113.882 99.047 107.305 103.626 101.255 99.583 C104.343 97.476 107.489 97.391 110.393 96.693 C112.493 96.188 114.639 95.873 116.756 95.434 C117.933 95.19 119.196 94.811 119.017 93.297 C118.842 91.813 117.51 91.692 116.331 91.668 C115.005 91.642 113.675 91.708 112.349 91.788 C111.359 91.848 110.011 92.46 109.447 92.022 C106.207 89.502 103.421 92.022 100.384 92.328 C95.762 92.794 94.969 95.478 94.988 99.119 C95.035 107.938 93.166 116.637 93.709 125.524 C93.988 130.09 93.273 134.728 93.444 139.384 C93.575 142.926 95.007 144.627 98.192 145.268 C103.794 146.396 109.444 146.26 115.078 145.653 C118.051 145.333 119.812 143.659 120.233 140.512 C120.766 136.523 120.634 132.539 120.645 128.543 C120.651 126.354 119.728 125.54 117.634 125.723 C115.977 125.868 114.304 125.847 112.652 126.021 C107.54 126.562 105.77 124.994 105.718 119.909 C105.696 117.689 106.455 115.821 107.446 113.878 C108.119 114.333 108.518 114.452 108.573 114.662 C110.207 120.849 110.208 120.949 116.5 120.524 C120.843 120.23 125.166 120.409 129.482 120.693 C131.996 120.859 133.302 119.888 133.506 117.498 C133.75 114.646 131.455 114.869 129.736 114.772 C124.947 114.503 120.146 116.139 115.348 114.667 C113.831 114.206 112.143 114.183 110.579 112.72 Z " data-centerx="121.838" data-centery="119.449" stroke="none" stroke-width="0" data-sw="0" stroke-opacity="1" stroke-linecap="round" stroke-linejoin="round" fill="#000000" fill-opacity="1" fill-rule="evenodd" filter="none" visibility="visible" stroke-dasharray="none" marker-start="none" marker-end="none" data-name="curve" data-title="curve" deg="0" data-grad="0" data-group="0" data-edit="1"></path><path id="path22" d="M104.898 22.541 C106.133 25.701 108.664 26.141 111.344 26.149 C117.006 26.166 122.668 26.145 128.329 26.081 C130.842 26.052 132.984 26.493 133.816 29.483 C132.913 30.79 131.489 31.202 130.038 31.146 C123.206 30.885 116.531 33.244 109.647 32.283 C108.312 32.097 106.576 31.631 105.75 33.526 C104.787 35.736 106.053 38.155 108.575 37.97 C118.071 37.273 127.54 38.722 137.015 38.107 C140.491 37.882 143.171 36.609 142.683 32.316 C142.612 31.689 142.95 31.021 143.064 30.366 C144.226 23.734 142.178 21.39 135.535 21.524 C127.889 21.678 120.233 20.888 112.59 21.904 C110.869 22.133 109 22.058 107.475 20.562 C109.241 17.976 112.24 18.426 114.59 17.457 C115.807 16.955 117.238 16.908 118.373 16.29 C119.771 15.528 120.422 13.997 120.09 12.475 C119.744 10.892 118.564 10.039 116.766 10.096 C112.608 10.226 108.438 10.097 104.289 10.352 C99.503 10.646 98.4 11.763 97.473 16.596 C97.189 18.077 96.934 19.516 95.345 20.949 C93.534 17.597 91.534 14.473 90.127 11.102 C89.062 8.551 92.313 4.986 96.074 4.639 C102.696 4.027 109.28 2.92 115.972 3.073 C124.296 3.263 132.621 3.427 140.945 2.929 C144.134 2.738 147.292 3.021 150.052 4.885 C151.446 5.827 153.005 6.98 152.307 8.868 C151.656 10.629 149.694 10.261 148.332 10.034 C142.53 9.067 136.729 9.07 130.906 9.619 C129.748 9.728 128.545 9.795 127.462 10.171 C126.004 10.677 125.675 12.057 125.708 13.433 C125.743 14.882 126.329 15.927 127.977 16.204 C130.309 16.596 132.639 16.589 134.942 16.223 C144.611 14.688 150.853 26.952 149.342 33.198 C148.405 37.072 143.088 38.361 142.511 42.867 C142.483 43.086 140.992 43.187 140.176 43.221 C138.846 43.278 137.502 43.341 136.181 43.215 C130.464 42.667 125.148 43.002 122.112 50.708 C119.74 44.234 115.538 44.008 110.812 44.16 C106.844 44.287 102.353 39.868 101.691 35.501 C101.012 30.997 101.466 26.565 104.898 22.541 Z " data-centerx="121.201" data-centery="26.793" stroke="none" stroke-width="0" data-sw="0" stroke-opacity="1" stroke-linecap="round" stroke-linejoin="round" fill="#000000" fill-opacity="1" fill-rule="evenodd" filter="none" visibility="visible" stroke-dasharray="none" marker-start="none" marker-end="none" data-name="curve" data-title="curve" deg="0" data-grad="0" data-group="0" data-edit="1"></path><path id="path23" d="M17.593 92.039 C19.411 93.698 19.399 95.612 19.268 97.401 C19.03 100.638 21.016 101.657 23.529 101.399 C26.624 101.081 30.289 101.578 32.282 97.641 C29.015 96.007 25.405 97.941 22.006 96.399 C23.863 93.575 26.485 93.892 28.819 93.684 C30.751 93.512 32.812 93.445 32.528 90.863 C32.221 88.075 29.82 88.864 28.184 89.1 C25.565 89.478 23.015 90.304 20.413 90.832 C19.294 91.059 17.9 91.259 17.507 89.75 C17.177 88.485 18.004 87.542 19.103 86.964 C20.751 86.097 22.567 85.865 24.392 85.648 C28.324 85.179 32.46 85.065 33.97 80.491 C36.02 80.765 36.68 82.294 37.811 83.202 C40.914 85.692 42.49 85.473 44.62 82.235 C46.762 78.98 48.356 78.835 50.25 82.321 C51.414 84.463 52.774 84.937 54.917 85.028 C57.679 85.145 60.445 85.571 62.728 87.56 C61.232 89.833 59.264 88.876 57.569 88.866 C56.086 88.857 54.603 88.423 53.122 88.435 C51.955 88.444 50.713 88.864 50.473 90.256 C50.176 91.98 51.421 92.582 52.8 92.879 C53.934 93.123 55.108 93.18 56.249 93.401 C58.02 93.744 59.456 94.437 59.078 96.945 C56.996 97.431 55.012 96.684 52.982 96.213 C51.912 95.965 50.595 95.508 50.063 97.12 C49.572 98.606 50.04 99.923 51.472 100.413 C55.234 101.702 59.045 101.504 62.62 99.793 C64.148 99.062 64.171 97.426 63.764 95.839 C63.233 93.765 62.545 91.673 63.511 89.527 C68.707 90.823 72.032 98.851 69.044 102.924 C68.259 103.994 67.066 104.989 65.708 104.868 C61.683 104.509 57.834 105.976 53.83 105.772 C43.514 105.245 33.232 105.681 22.976 106.933 C19.595 107.346 16.175 107.334 14.269 103.765 C12.662 100.76 14.27 95.211 17.593 92.039 Z M41.676 96.236 C40.178 97.151 36.942 95.4 36.474 98.151 C35.983 101.032 39.013 100.51 40.828 100.817 C42.995 101.184 44.485 100.156 44.734 98.006 C44.974 95.948 43.285 96.241 41.676 96.236 Z M40.68 92.959 C42.074 92.779 44.176 93.852 44.315 91.657 C44.494 88.824 41.992 89.017 40.092 88.96 C38.587 88.915 36.311 88.345 36.507 90.871 C36.701 93.373 39.108 92.687 40.68 92.959 Z " data-centerx="41.907" data-centery="93.432" stroke="none" stroke-width="0" data-sw="0" stroke-opacity="1" stroke-linecap="round" stroke-linejoin="round" fill="#000000" fill-opacity="1" fill-rule="evenodd" filter="none" visibility="visible" stroke-dasharray="none" marker-start="none" marker-end="none" data-name="curve" data-title="curve" deg="0" data-grad="0" data-group="0" data-edit="1"></path><path id="path24" d="M69.432 39.867 C69.432 38.703 69.476 37.537 69.425 36.376 C69.046 27.688 68.439 27.071 59.67 26.356 C55.224 25.993 52.135 24.122 52.254 21.863 C52.368 19.69 55.937 17.397 59.789 17.219 C62.61 17.088 65.449 17.066 68.266 17.233 C72.091 17.459 74.931 19.672 74.427 22.963 C72.833 33.368 75.651 43.831 73.515 54.223 C72.048 61.358 69.97 63.317 62.684 63.309 C59.873 63.306 57.064 63.853 54.248 64.073 C49.605 64.436 47.568 63.215 45.676 58.961 C43.086 53.136 43.083 46.978 43.606 40.816 C44.027 35.853 44.708 30.909 45.407 25.976 C45.588 24.698 46.099 23.386 46.771 22.28 C47.418 21.214 48.709 20.802 49.819 21.505 C50.725 22.079 50.822 23.211 50.317 24.193 C45.764 33.051 47.737 42.338 48.411 51.562 C48.628 54.537 50.287 55.465 52.912 55.749 C56.771 56.166 60.549 55.467 64.35 55.109 C66.631 54.894 67.757 53.329 68.342 51.226 C69.377 47.5 69.758 43.717 69.432 39.867 Z " data-centerx="58.909" data-centery="40.624" stroke="none" stroke-width="0" data-sw="0" stroke-opacity="1" stroke-linecap="round" stroke-linejoin="round" fill="#000000" fill-opacity="1" fill-rule="evenodd" filter="none" visibility="visible" stroke-dasharray="none" marker-start="none" marker-end="none" data-name="curve" data-title="curve" deg="0" data-grad="0" data-group="0" data-edit="1"></path><path id="path25" d="M22.024 33.814 C20.362 32.485 20.733 30.704 20.46 29.118 C19.613 24.19 18.359 23.359 13.626 24.557 C7.94 25.996 6.277 24.678 6.461 18.875 C6.593 14.706 7.345 14.054 11.514 15.014 C14.294 15.654 16.717 14.1 19.33 14.062 C23.07 14.008 22.975 10.745 24.246 8.616 C24.84 7.621 25.302 6.547 25.906 5.559 C26.476 4.627 26.7 3.087 28.214 3.371 C29.715 3.653 30.171 5.049 30.349 6.388 C30.456 7.193 30.403 8.073 30.191 8.857 C29.101 12.896 29.334 15.789 34.127 17.718 C39.446 19.858 42.291 28.63 37.209 36.118 C35.12 34.996 35.588 32.73 34.959 31.049 C33.979 28.431 33.545 25.452 29.802 25.255 C26.254 25.068 24.99 27.678 23.622 30.141 C22.987 31.28 22.569 32.54 22.024 33.814 Z " data-centerx="23.159" data-centery="19.727" stroke="none" stroke-width="0" data-sw="0" stroke-opacity="1" stroke-linecap="round" stroke-linejoin="round" fill="#000000" fill-opacity="1" fill-rule="evenodd" filter="none" visibility="visible" stroke-dasharray="none" marker-start="none" marker-end="none" data-name="curve" data-title="curve" deg="0" data-grad="0" data-group="0" data-edit="1"></path><path id="path26" d="M22.533 121.894 C20.819 121.348 20.151 119.907 19.191 118.807 C15.56 114.647 15.861 113.402 21.004 111.161 C21.912 110.765 22.879 110.296 23.837 110.253 C33.107 109.839 42.41 109.287 51.646 110.134 C55.804 110.515 59.842 110.886 64 110.381 C67.642 109.939 71.333 110.001 74.661 111.906 C75.922 112.628 77.543 113.489 77.033 115.259 C76.635 116.643 75.046 116.785 73.725 117.024 C69.496 117.791 65.464 116.317 61.421 115.683 C50.998 114.048 40.576 115.025 30.158 114.983 C25.846 114.967 25.247 119.449 22.533 121.894 Z " data-centerx="46.944" data-centery="115.792" stroke="none" stroke-width="0" data-sw="0" stroke-opacity="1" stroke-linecap="round" stroke-linejoin="round" fill="#000000" fill-opacity="1" fill-rule="evenodd" filter="none" visibility="visible" stroke-dasharray="none" marker-start="none" marker-end="none" data-name="curve" data-title="curve" deg="0" data-grad="0" data-group="0" data-edit="1"></path><path id="path27" d="M21.499 35.793 C21.586 46.257 18.196 54.899 12.168 62.558 C10.853 64.229 9.149 65.71 7.356 66.857 C5.419 68.096 2.764 69.464 1.068 67.084 C-0.556 64.805 -0.4 61.034 2.03 59.887 C12.052 55.156 14.959 45.151 20.187 36.848 C20.341 36.603 20.656 36.461 21.499 35.793 Z " data-centerx="10.75" data-centery="52.091" stroke="none" stroke-width="0" data-sw="0" stroke-opacity="1" stroke-linecap="round" stroke-linejoin="round" fill="#000000" fill-opacity="1" fill-rule="evenodd" filter="none" visibility="visible" stroke-dasharray="none" marker-start="none" marker-end="none" data-name="curve" data-title="curve" deg="0" data-grad="0" data-group="0" data-edit="1"></path><path id="path28" d="M94.949 22.466 C96.341 22.779 96.43 23.838 96.493 24.818 C97.139 34.811 95.229 44.333 91.086 53.418 C90.681 54.307 90.034 55.133 89.344 55.836 C87.222 57.998 83.937 57.945 81.783 55.799 C79.495 53.519 80.643 51.632 82.465 49.823 C87.264 45.057 91.085 39.641 92.874 33.054 C93.815 29.594 94.273 26.002 94.949 22.466 Z " data-centerx="88.563" data-centery="39.95" stroke="none" stroke-width="0" data-sw="0" stroke-opacity="1" stroke-linecap="round" stroke-linejoin="round" fill="#000000" fill-opacity="1" fill-rule="evenodd" filter="none" visibility="visible" stroke-dasharray="none" marker-start="none" marker-end="none" data-name="curve" data-title="curve" deg="0" data-grad="0" data-group="0" data-edit="1"></path><path id="path29" d="M28.464 134.087 C27.46 132.943 25.427 132.507 26.104 130.236 C26.678 128.308 28.325 128.412 29.701 128.164 C40.077 126.293 50.563 127.198 61.005 127.099 C63.526 127.075 65.731 128.386 67.639 130.256 C66.278 132.965 63.938 132.517 61.91 132.492 C54.265 132.398 46.621 132.21 38.978 132 C35.274 131.898 31.674 132.223 28.317 133.949 C28.317 133.949 28.464 134.087 28.464 134.087 Z " data-centerx="46.804" data-centery="130.526" stroke="none" stroke-width="0" data-sw="0" stroke-opacity="1" stroke-linecap="round" stroke-linejoin="round" fill="#000000" fill-opacity="1" fill-rule="evenodd" filter="none" visibility="visible" stroke-dasharray="none" marker-start="none" marker-end="none" data-name="curve" data-title="curve" deg="0" data-grad="0" data-group="0" data-edit="1"></path><path id="path30" d="M28.316 133.948 C28.083 136.399 28.024 138.883 27.575 141.294 C26.941 144.699 28.685 145.758 31.608 146.036 C34.489 146.309 37.115 144.879 39.938 144.882 C41.389 144.884 43.319 144.512 43.838 146.253 C44.425 148.22 42.272 148.431 41.103 149.113 C37.33 151.314 33.172 152.457 28.877 152.922 C24.6 153.386 22.616 151.737 22.224 147.539 C21.914 144.227 22.29 140.951 23.132 137.699 C23.883 134.8 25.43 133.438 28.464 134.087 C28.464 134.087 28.316 133.948 28.316 133.948 Z " data-centerx="33.027" data-centery="143.463" stroke="none" stroke-width="0" data-sw="0" stroke-opacity="1" stroke-linecap="round" stroke-linejoin="round" fill="#000000" fill-opacity="1" fill-rule="evenodd" filter="none" visibility="visible" stroke-dasharray="none" marker-start="none" marker-end="none" data-name="curve" data-title="curve" deg="0" data-grad="0" data-group="0" data-edit="1"></path><path id="path31" d="M22.444 123.41 C23.385 127.454 22.283 130.9 20.625 134.077 C17.737 139.612 13.014 143.192 7.301 145.546 C6.016 146.076 4.687 145.932 3.364 145.976 C1.943 146.024 0.581 145.769 0.196 144.203 C-0.127 142.888 0.15 141.588 1.179 140.512 C2.137 139.51 3.317 138.846 4.576 138.497 C11.41 136.608 16.217 132.351 19.49 126.162 C20.014 125.175 20.497 124.016 22.444 123.41 Z " data-centerx="11.429" data-centery="134.696" stroke="none" stroke-width="0" data-sw="0" stroke-opacity="1" stroke-linecap="round" stroke-linejoin="round" fill="#000000" fill-opacity="1" fill-rule="evenodd" filter="none" visibility="visible" stroke-dasharray="none" marker-start="none" marker-end="none" data-name="curve" data-title="curve" deg="0" data-grad="0" data-group="0" data-edit="1"></path><path id="path32" d="M37.657 37.693 C39.171 47.449 37.63 56.698 33.294 65.446 C32.683 66.679 31.534 68.411 29.92 67.924 C27.968 67.336 28.314 65.224 28.439 63.621 C29.175 54.217 32.362 45.637 37.657 37.693 Z " data-centerx="33.279" data-centery="52.851" stroke="none" stroke-width="0" data-sw="0" stroke-opacity="1" stroke-linecap="round" stroke-linejoin="round" fill="#000000" fill-opacity="1" fill-rule="evenodd" filter="none" visibility="visible" stroke-dasharray="none" marker-start="none" marker-end="none" data-name="curve" data-title="curve" deg="0" data-grad="0" data-group="0" data-edit="1"></path><path id="path33" d="M64.467 122.861 C60.722 123.982 57.252 124.343 53.85 123.858 C47.193 122.911 40.596 122.782 33.942 123.817 C32.32 124.069 29.778 124.823 29.598 122.072 C29.425 119.433 31.654 119.09 33.829 119.089 C40.327 119.087 46.77 117.638 53.275 118.166 C57.281 118.492 61.592 118.429 64.467 122.861 Z " data-centerx="47.028" data-centery="121.077" stroke="none" stroke-width="0" data-sw="0" stroke-opacity="1" stroke-linecap="round" stroke-linejoin="round" fill="#000000" fill-opacity="1" fill-rule="evenodd" filter="none" visibility="visible" stroke-dasharray="none" marker-start="none" marker-end="none" data-name="curve" data-title="curve" deg="0" data-grad="0" data-group="0" data-edit="1"></path><path id="path34" d="M133.302 48.09 C138.739 50.702 143.77 52.769 148.997 54.344 C151.102 54.978 152.5 56.612 152.093 58.852 C151.694 61.048 149.876 62.062 147.677 62.215 C142.078 62.606 133.576 54.686 133.302 48.09 Z " data-centerx="142.733" data-centery="55.159" stroke="none" stroke-width="0" data-sw="0" stroke-opacity="1" stroke-linecap="round" stroke-linejoin="round" fill="#000000" fill-opacity="1" fill-rule="evenodd" filter="none" visibility="visible" stroke-dasharray="none" marker-start="none" marker-end="none" data-name="curve" data-title="curve" deg="0" data-grad="0" data-group="0" data-edit="1"></path><path id="path35" d="M104.14 140.677 C100.762 140.714 98.611 140.098 98.319 137.099 C98.055 134.387 99.645 133.338 102.135 132.975 C106.051 132.403 108.839 129.554 112.127 127.716 C113.26 127.083 114.332 125.843 115.67 126.853 C117.321 128.099 116.135 129.768 115.526 130.869 C112.817 135.763 109.21 139.703 104.14 140.677 Z " data-centerx="107.401" data-centery="133.575" stroke="none" stroke-width="0" data-sw="0" stroke-opacity="1" stroke-linecap="round" stroke-linejoin="round" fill="#000000" fill-opacity="1" fill-rule="evenodd" filter="none" visibility="visible" stroke-dasharray="none" marker-start="none" marker-end="none" data-name="curve" data-title="curve" deg="0" data-grad="0" data-group="0" data-edit="1"></path><path id="path36" d="M54.059 144.847 C55.227 142.803 56.865 142.958 58.239 143.171 C62.137 143.776 66.041 144.451 69.859 145.423 C72.294 146.043 74.698 147.279 74.298 150.445 C74.023 152.623 70.18 154.122 67.396 153.228 C62.205 151.562 57.483 149.148 54.059 144.847 Z " data-centerx="64.2" data-centery="148.272" stroke="none" stroke-width="0" data-sw="0" stroke-opacity="1" stroke-linecap="round" stroke-linejoin="round" fill="#000000" fill-opacity="1" fill-rule="evenodd" filter="none" visibility="visible" stroke-dasharray="none" marker-start="none" marker-end="none" data-name="curve" data-title="curve" deg="0" data-grad="0" data-group="0" data-edit="1"></path><path id="path37" d="M108.106 48.16 C110.183 50.646 109.693 52.849 108.399 54.892 C106.706 57.565 104.427 59.752 101.732 61.404 C98.934 63.12 95.463 62.473 94.398 60.053 C93.095 57.092 95.431 55.944 97.383 54.727 C100.861 52.56 104.371 50.444 108.106 48.16 Z " data-centerx="101.769" data-centery="55.264" stroke="none" stroke-width="0" data-sw="0" stroke-opacity="1" stroke-linecap="round" stroke-linejoin="round" fill="#000000" fill-opacity="1" fill-rule="evenodd" filter="none" visibility="visible" stroke-dasharray="none" marker-start="none" marker-end="none" data-name="curve" data-title="curve" deg="0" data-grad="0" data-group="0" data-edit="1"></path><path id="path38" d="M122.305 72.346 C119.063 70.463 118.9 67.539 118.771 64.785 C118.584 60.811 119.319 56.911 120.592 53.133 C120.862 52.332 121.376 51.62 122.246 51.461 C123.265 51.275 123.924 52.191 123.971 52.86 C124.425 59.294 128.009 66.009 122.305 72.346 Z " data-centerx="122.12" data-centery="61.891" stroke="none" stroke-width="0" data-sw="0" stroke-opacity="1" stroke-linecap="round" stroke-linejoin="round" fill="#000000" fill-opacity="1" fill-rule="evenodd" filter="none" visibility="visible" stroke-dasharray="none" marker-start="none" marker-end="none" data-name="curve" data-title="curve" deg="0" data-grad="0" data-group="0" data-edit="1"></path><path id="path39" d="M38.042 135.929 C41.823 136.447 45.17 135.919 48.065 133.381 C49.495 132.127 50.692 133.651 51.967 134.557 C51.161 135.886 50.395 137.15 49.666 138.351 C50.752 140.102 52.612 141.195 53.018 143.288 C47.555 144.754 40.206 141.293 38.042 135.929 Z " data-centerx="45.53" data-centery="138.266" stroke="none" stroke-width="0" data-sw="0" stroke-opacity="1" stroke-linecap="round" stroke-linejoin="round" fill="#000000" fill-opacity="1" fill-rule="evenodd" filter="none" visibility="visible" stroke-dasharray="none" marker-start="none" marker-end="none" data-name="curve" data-title="curve" deg="0" data-grad="0" data-group="0" data-edit="1"></path><path id="path40" d="M15.259 115.585 C15.26 118.016 11.439 121.975 9.068 121.712 C7.054 121.489 5.971 120.11 5.957 117.985 C5.938 115.014 8.059 113 11.435 112.979 C13.256 112.968 15.177 112.997 15.259 115.585 Z " data-centerx="10.608" data-centery="117.351" stroke="none" stroke-width="0" data-sw="0" stroke-opacity="1" stroke-linecap="round" stroke-linejoin="round" fill="#000000" fill-opacity="1" fill-rule="evenodd" filter="none" visibility="visible" stroke-dasharray="none" marker-start="none" marker-end="none" data-name="curve" data-title="curve" deg="0" data-grad="0" data-group="0" data-edit="1"></path></g><g id="settings" visibility="hidden" data-dn0="primalDraw" data-dn1="#FAFAFA" data-dn2="#D2D2D2" data-dn3="18" data-dn4="#000000" data-dn5="#B3B3B3" data-dn6="1" data-dn7="1" data-dn8="2" data-dn9="round" data-dn10="round" data-dn11="none" data-dn12="none" data-dn13="none" data-dn14="evenodd" data-dn15="10" data-dn16="1" data-dn17="160" data-dn18="160" data-dn19="10" data-dn20="0" data-dn21="1" data-dn22="1" data-dn23="41" data-dn24="path21,path22,path23,path24,path25,path26,path27,path28,path29,path30,path31,path32,path33,path34,path35,path36,path37,path38,path39,path40" data-dn25="2" data-dn26="url(#linear0)" data-dn27="url(#linear1)" data-dn28="url(#radial0)" data-dn29="url(#radial1)" data-dn30="#FF8000" data-dn31="#FFFF00" data-dn32="#000000" data-dn33="1" data-dn34="1" data-dn35="10" data-dn36="" data-dn37="0" data-dn38="82"></g></svg>