<svg xmlns="http://www.w3.org/2000/svg" viewBox="0 0 300 100"><defs><style>.cls-1,.cls-2,.cls-3{fill:none;stroke:#231815;stroke-miterlimit:10;}.cls-1{stroke-width:0.5px;}.cls-2,.cls-3{stroke-linecap:round;}.cls-3{stroke-dasharray:0 2.08;}.cls-4{fill:#231815;}</style></defs><g id="枠"><line class="cls-1" x1="33.33" x2="33.33" y2="100"/><line class="cls-1" x1="66.67" x2="66.67" y2="100"/><line class="cls-1" x1="100" x2="100" y2="100"/><line class="cls-1" x1="133.33" x2="133.33" y2="100"/><line class="cls-1" x1="166.67" x2="166.67" y2="100"/><line class="cls-1" x1="200" x2="200" y2="100"/><line class="cls-1" x1="233.33" x2="233.33" y2="100"/><line class="cls-1" x1="266.67" x2="266.67" y2="100"/><line class="cls-1" x1="300" x2="300" y2="100"/></g><g id="線"><line class="cls-2" x1="150" y1="50.24" x2="150" y2="50.24"/><line class="cls-3" x1="152.08" y1="50.24" x2="165.63" y2="50.24"/><line class="cls-2" x1="166.67" y1="50.24" x2="166.67" y2="50.24"/></g><g id="文字"><path class="cls-4" d="M154,54.57c0,3.67,0,4.57,0,4.81s-.24.26-.47.26-.17,0-.17-.13,0-.71,0-2a9.78,9.78,0,0,1-1.34.75c0,.19-.08.25-.16.25s-.13-.07-.37-.72l.5-.12V55c0-.59,0-.91,0-1.17.75.07.86.11.86.2s0,.12-.28.22v3.2l.82-.26c0-.68,0-1.55,0-2.67,0-.67,0-1,0-1.23.77.08.88.13.88.21s-.07.14-.3.23Zm3-.55c.14-.28.2-.32.27-.32s.17,0,.39.2.26.24.26.3-.08.15-.29.23a8.27,8.27,0,0,1-1.16,3.4l0,0A5,5,0,0,0,158.16,59l0,.13a1,1,0,0,0-.66.4A5.48,5.48,0,0,1,156,58.29a5.29,5.29,0,0,1-2,1.47l-.07-.1a6.48,6.48,0,0,0,1.77-1.77,7.48,7.48,0,0,1-.87-3.65l-.64,0V54l.65,0Zm-1.83.22c0,.32.07.63.13.94a6.25,6.25,0,0,0,.84,2.21,9.58,9.58,0,0,0,.9-3.15Z"/><path class="cls-4" d="M159.14,55.4l-.54,0v-.28l.54,0h.38V54.1c-.28,0-.57.07-.86.09v-.13a9.25,9.25,0,0,0,1.91-.7c.41.3.45.37.45.44s-.1.11-.37.09l-.51.12a.17.17,0,0,1-.12.17v1h.17l.35-.39c.51.41.54.47.54.53s0,.08-.12.08H160v.82c.63.15.9.5.9.79a.28.28,0,0,1-.27.3.24.24,0,0,1-.26-.22,1.17,1.17,0,0,0-.37-.69c0,2.27,0,2.8,0,3s-.22.21-.42.21-.14,0-.14-.11,0-.73,0-2.65a6.52,6.52,0,0,1-.84,1.21l-.11-.06a8.38,8.38,0,0,0,.9-2.58Zm4.69,2.39c.14-.21.18-.23.25-.23s.14,0,.33.19.23.21.23.28-.06.14-.32.18a5.11,5.11,0,0,1-1,.68,5.69,5.69,0,0,0,1.84.31l0,.14a.59.59,0,0,0-.41.37,4.64,4.64,0,0,1-1.86-.61,8.21,8.21,0,0,1-2.71.57l0-.13a8.43,8.43,0,0,0,2.39-.7,2.82,2.82,0,0,1-.69-.84h-.44l-.6,0v-.29l.6,0Zm0-3.59c0,.13,0,.25,0,.36s-.16.2-.37.2c0,.08,0,.13-.19.16l-.2.25h1c.11-.14.2-.25.33-.39.55.42.57.47.57.54s0,.07-.11.07H163.4a.21.21,0,0,1-.11.13v.3H164l.29-.34c.47.37.5.42.5.49s0,.07-.11.07h-1.37v.44H164l.29-.34c.47.37.5.42.5.48s0,.08-.11.08h-1.37v.45h.84l.37-.39c.52.42.54.47.54.54s0,.07-.11.07h-3.09c0,.14-.14.24-.35.24s-.15,0-.15-.13,0-.55,0-1.48v-.12a4.93,4.93,0,0,1-.58.62l-.1-.08a6.93,6.93,0,0,0,1-1.88l.39.13c0-.15,0-.31,0-.47h-.44l-.65,0V54l.65,0h.44c0-.3,0-.44,0-.67.65.06.72.1.72.18s0,.11-.23.18V54h.78c0-.3,0-.44,0-.67.65.06.74.1.74.18s0,.11-.24.18V54h.39c.12-.14.22-.27.36-.41.54.43.57.5.57.55s0,.08-.09.08Zm-1,1.62v-.43h-.88l-.09.09v.34Zm-1,.22v.44h1V56Zm0,.66v.45h1V56.7Zm1.47-2c0-.11,0-.25,0-.46h-.78c0,.15,0,.27,0,.37s-.16.2-.34.21c0,0,0,0,0,0s0,.1-.23.12a1.71,1.71,0,0,1-.12.23h.92c0-.21.07-.42.09-.6l.42.11ZM162,58a2.9,2.9,0,0,0,.81.67,5.25,5.25,0,0,0,.95-.67Z"/><path class="cls-4" d="M13.81,9.61h.82v.31h-.82v.41c0,.41,0,.46.45.47h.09v.27H12.62V10.8h.07c.42,0,.52-.09.52-.47V9.92H11.38V9.63l2.13-3.36h.3Zm-2.11,0h1.51V7.22Z"/><path class="cls-4" d="M21.44,6c.14-.32.19-.35.26-.35s.16,0,.38.19.27.26.27.34-.06.15-.28.25v.87c0,3,0,3.59,0,3.9,0,.53-.37.75-.92.75-.06-.34-.19-.48-.8-.62l0-.14a5.23,5.23,0,0,0,.75,0c.27,0,.33-.06.33-.33V9.2H19a2.91,2.91,0,0,1-.57,1.74,2.91,2.91,0,0,1-1.49,1l-.06-.11a3,3,0,0,0,1.16-1.1,4.73,4.73,0,0,0,.4-2.51c0-1.64,0-2.18,0-2.55A2.9,2.9,0,0,1,19.2,6ZM19.06,8.25c0,.27,0,.52,0,.73h2.45V7.65H19.06Zm0-2V7.44h2.43V6.17H19.15Z"/><path class="cls-4" d="M45.2,8.82c0-.38.07-.73.09-1.23s0-1,.06-1.25h2.41l-.12.58h-2c0,.5-.05,1-.08,1.58A1.48,1.48,0,0,1,46.57,8,1.45,1.45,0,0,1,48,9.54a1.62,1.62,0,0,1-1.7,1.64c-.72,0-1.3-.42-1.3-1a.38.38,0,1,1,.76,0,.6.6,0,0,1,0,.12.56.56,0,0,0,0,.16c0,.23.26.4.58.4.65,0,1-.44,1-1.31S47,8.4,46.42,8.4a1.27,1.27,0,0,0-1,.51Z"/><path class="cls-4" d="M54.77,6c.15-.32.2-.35.27-.35s.16,0,.37.19.27.26.27.34-.06.15-.28.25v.87c0,3,0,3.59,0,3.9,0,.53-.36.75-.92.75-.06-.34-.19-.48-.79-.62v-.14a5.23,5.23,0,0,0,.75,0c.27,0,.33-.06.33-.33V9.2H52.36a2.91,2.91,0,0,1-.57,1.74,2.91,2.91,0,0,1-1.49,1l-.06-.11a3,3,0,0,0,1.16-1.1,4.73,4.73,0,0,0,.4-2.51c0-1.64,0-2.18,0-2.55a2.9,2.9,0,0,1,.76.32ZM52.4,8.25c0,.27,0,.52,0,.73h2.44V7.65H52.4Zm0-2V7.44h2.42V6.17H52.48Z"/><path class="cls-4" d="M80.19,8.05A1.32,1.32,0,0,1,81.4,9.49a1.6,1.6,0,0,1-1.49,1.69c-1,0-1.6-.91-1.6-2.2A3.18,3.18,0,0,1,79,6.88a1.59,1.59,0,0,1,1.23-.65c.54,0,1,.31,1,.67a.38.38,0,0,1-.37.4c-.2,0-.33-.14-.42-.45s-.17-.33-.36-.33c-.63,0-1.07.93-1.07,2.23A1.43,1.43,0,0,1,80.19,8.05ZM79,9.35a2.4,2.4,0,0,0,.32,1.28.67.67,0,0,0,.57.3c.52,0,.81-.48.81-1.34S80.47,8.45,80,8.45a1,1,0,0,0-.74.4,1.18,1.18,0,0,0-.21.3Z"/><path class="cls-4" d="M88.1,6c.15-.32.2-.35.27-.35s.16,0,.38.19.26.26.26.34-.05.15-.28.25v.87c0,3,0,3.59,0,3.9,0,.53-.37.75-.92.75-.07-.34-.2-.48-.8-.62v-.14a5.32,5.32,0,0,0,.75,0c.28,0,.33-.06.33-.33V9.2H85.69a3,3,0,0,1-.56,1.74,2.93,2.93,0,0,1-1.5,1l-.06-.11a2.92,2.92,0,0,0,1.16-1.1,4.63,4.63,0,0,0,.4-2.51c0-1.64,0-2.18,0-2.55a2.76,2.76,0,0,1,.75.32ZM85.73,8.25c0,.27,0,.52,0,.73h2.44V7.65H85.73Zm0-2V7.44h2.42V6.17H85.81Z"/><path class="cls-4" d="M114.66,6.62c-1,1.83-1.44,2.91-1.44,3.8v.17c0,.37-.14.59-.4.59s-.38-.21-.38-.49a5.94,5.94,0,0,1,.8-2.08c.26-.47.39-.71.67-1.15l.35-.54h-1.43c-.61,0-.66,0-1,.91l-.21-.07L112,6.34h2.68Z"/><path class="cls-4" d="M121.44,6c.14-.32.19-.35.26-.35s.16,0,.38.19.27.26.27.34-.06.15-.28.25v.87c0,3,0,3.59,0,3.9,0,.53-.37.75-.92.75-.06-.34-.19-.48-.8-.62l0-.14a5.23,5.23,0,0,0,.75,0c.27,0,.33-.06.33-.33V9.2H119a2.91,2.91,0,0,1-.57,1.74,2.91,2.91,0,0,1-1.49,1l-.06-.11a3,3,0,0,0,1.16-1.1,4.73,4.73,0,0,0,.4-2.51c0-1.64,0-2.18,0-2.55a2.9,2.9,0,0,1,.76.32Zm-2.38,2.29c0,.27,0,.52,0,.73h2.45V7.65h-2.43Zm0-2V7.44h2.43V6.17h-2.34Z"/><path class="cls-4" d="M145.21,7.53a1.3,1.3,0,0,1,1.36-1.3,1.19,1.19,0,0,1,1.31,1A1.22,1.22,0,0,1,147,8.41a1.42,1.42,0,0,1,1,1.34,1.46,1.46,0,0,1-1.59,1.43c-.88,0-1.51-.5-1.51-1.2,0-.54.33-.93,1.1-1.3A1.24,1.24,0,0,1,145.21,7.53Zm1,1.26a1.31,1.31,0,0,0-.67,1.15.9.9,0,0,0,1,1,1,1,0,0,0,1-.93.73.73,0,0,0-.33-.66,4.13,4.13,0,0,0-.76-.41Zm.62-.47a1.24,1.24,0,0,0,.53-1,.84.84,0,0,0-1.67-.06.72.72,0,0,0,.32.62,3.19,3.19,0,0,0,.6.33Z"/><path class="cls-4" d="M154.77,6c.15-.32.2-.35.27-.35s.16,0,.37.19.27.26.27.34-.06.15-.28.25v.87c0,3,0,3.59,0,3.9,0,.53-.36.75-.92.75-.06-.34-.19-.48-.79-.62v-.14a5.23,5.23,0,0,0,.75,0c.27,0,.33-.06.33-.33V9.2h-2.46a2.91,2.91,0,0,1-.57,1.74,2.91,2.91,0,0,1-1.49,1l-.06-.11a3,3,0,0,0,1.16-1.1,4.73,4.73,0,0,0,.4-2.51c0-1.64,0-2.18,0-2.55a2.9,2.9,0,0,1,.76.32ZM152.4,8.25c0,.27,0,.52,0,.73h2.44V7.65H152.4Zm0-2V7.44h2.42V6.17h-2.34Z"/><path class="cls-4" d="M180.37,9a1.19,1.19,0,0,1-.87.35,1.33,1.33,0,0,1-1.23-1.44,1.61,1.61,0,0,1,1.51-1.68c.92,0,1.6.9,1.6,2.18,0,1.53-.87,2.77-2,2.77-.52,0-1-.31-1-.68a.41.41,0,0,1,.39-.4c.18,0,.32.14.38.39s.16.38.4.38c.46,0,.83-.52,1-1.31a7.45,7.45,0,0,0,.1-1A1.87,1.87,0,0,1,180.37,9Zm.31-.91c0-1-.34-1.59-.9-1.59S179,7,179,7.83s.25,1.12.75,1.12a1.09,1.09,0,0,0,.77-.39,1.36,1.36,0,0,0,.19-.26Z"/><path class="cls-4" d="M188.1,6c.15-.32.2-.35.27-.35s.16,0,.38.19.26.26.26.34,0,.15-.28.25v.87c0,3,0,3.59,0,3.9,0,.53-.36.75-.91.75-.07-.34-.2-.48-.8-.62v-.14a5.32,5.32,0,0,0,.75,0c.28,0,.33-.06.33-.33V9.2h-2.46a3,3,0,0,1-.56,1.74,3,3,0,0,1-1.5,1l-.06-.11a2.92,2.92,0,0,0,1.16-1.1,4.63,4.63,0,0,0,.4-2.51c0-1.64,0-2.18,0-2.55a2.73,2.73,0,0,1,.76.32Zm-2.37,2.29c0,.27,0,.52,0,.73h2.44V7.65h-2.42Zm0-2V7.44h2.42V6.17h-2.34Z"/><path class="cls-4" d="M210.05,10.06c0,.43,0,.51.13.59a1.52,1.52,0,0,0,.8.14h.12v.28h-2.82v-.28c1.07,0,1.14-.06,1.14-.67V7.58c0-.38,0-.47-.12-.52a2.26,2.26,0,0,0-1-.1V6.7a7.28,7.28,0,0,0,1.75-.51Z"/><path class="cls-4" d="M216.68,6.23c.84,0,1.56,1.14,1.56,2.47s-.72,2.48-1.56,2.48S215.1,10,215.1,8.7,215.82,6.23,216.68,6.23Zm0,4.68c.57,0,.86-.74.86-2.21s-.29-2.2-.85-2.2-.87.74-.87,2.18S216.09,10.91,216.67,10.91Z"/><path class="cls-4" d="M224.94,6c.14-.32.19-.35.26-.35s.16,0,.38.19.27.26.27.34-.06.15-.28.25v.87c0,3,0,3.59,0,3.9,0,.53-.37.75-.92.75-.06-.34-.2-.48-.8-.62l0-.14a5.23,5.23,0,0,0,.75,0c.27,0,.32-.06.32-.33V9.2h-2.45a2.91,2.91,0,0,1-.57,1.74,2.91,2.91,0,0,1-1.49,1l-.07-.11a3,3,0,0,0,1.17-1.1,4.73,4.73,0,0,0,.4-2.51c0-1.64,0-2.18,0-2.55a3.1,3.1,0,0,1,.76.32Zm-2.38,2.29c0,.27,0,.52,0,.73H225V7.65h-2.42Zm0-2V7.44H225V6.17h-2.33Z"/><path class="cls-4" d="M243.38,10.06c0,.43,0,.51.13.59a1.59,1.59,0,0,0,.81.14h.12v.28h-2.82v-.28c1.06,0,1.14-.06,1.14-.67V7.58c0-.38,0-.47-.13-.52a2.2,2.2,0,0,0-1-.1V6.7a7.22,7.22,0,0,0,1.74-.51Z"/><path class="cls-4" d="M250.38,10.06c0,.43,0,.51.13.59a1.59,1.59,0,0,0,.81.14h.12v.28h-2.82v-.28c1.06,0,1.14-.06,1.14-.67V7.58c0-.38,0-.47-.13-.52a2.2,2.2,0,0,0-1-.1V6.7a7.22,7.22,0,0,0,1.74-.51Z"/><path class="cls-4" d="M258.27,6c.15-.32.2-.35.27-.35s.16,0,.37.19.27.26.27.34-.06.15-.28.25v.87c0,3,0,3.59,0,3.9,0,.53-.36.75-.92.75-.06-.34-.19-.48-.79-.62v-.14a5.23,5.23,0,0,0,.75,0c.27,0,.33-.06.33-.33V9.2h-2.46a2.91,2.91,0,0,1-.57,1.74,2.91,2.91,0,0,1-1.49,1l-.06-.11a3,3,0,0,0,1.16-1.1,4.73,4.73,0,0,0,.4-2.51c0-1.64,0-2.18,0-2.55A2.9,2.9,0,0,1,256,6ZM255.9,8.25c0,.27,0,.52,0,.73h2.44V7.65H255.9Zm0-2V7.44h2.42V6.17H256Z"/><path class="cls-4" d="M276.71,10.06c0,.43,0,.51.14.59a1.52,1.52,0,0,0,.8.14h.12v.28H275v-.28c1.06,0,1.14-.06,1.14-.67V7.58c0-.38,0-.47-.13-.52a2.2,2.2,0,0,0-1-.1V6.7a7.1,7.1,0,0,0,1.74-.51Z"/><path class="cls-4" d="M281.77,10.78a7.54,7.54,0,0,1,1.29-1.64c.81-.84,1-1.21,1-1.76a.77.77,0,0,0-.8-.86c-.4,0-.7.22-.7.5a.51.51,0,0,0,.06.23.54.54,0,0,1,.07.27.4.4,0,0,1-.36.41.47.47,0,0,1-.42-.5,1.1,1.1,0,0,1,.38-.79,1.43,1.43,0,0,1,1.07-.41,1.3,1.3,0,0,1,1.42,1.24c0,.59-.27,1-1.21,1.72a5.48,5.48,0,0,0-1.26,1.27h1.31c.45,0,.6-.05.77-.33a3.79,3.79,0,0,0,.21-.48l.22.06-.31,1.36h-2.76Z"/><path class="cls-4" d="M291.6,6c.15-.32.2-.35.27-.35s.16,0,.38.19.26.26.26.34-.05.15-.28.25v.87c0,3,0,3.59,0,3.9,0,.53-.37.75-.92.75-.07-.34-.2-.48-.8-.62v-.14a5.32,5.32,0,0,0,.75,0c.28,0,.33-.06.33-.33V9.2h-2.46a3,3,0,0,1-.56,1.74,2.93,2.93,0,0,1-1.5,1l-.06-.11a2.92,2.92,0,0,0,1.16-1.1,4.63,4.63,0,0,0,.4-2.51c0-1.64,0-2.18,0-2.55a2.76,2.76,0,0,1,.75.32Zm-2.37,2.29c0,.27,0,.52,0,.73h2.44V7.65h-2.42Zm0-2V7.44h2.42V6.17h-2.34Z"/></g></svg>