<?xml version="1.0" encoding="utf-8"?>
<!-- Generator: Adobe Illustrator 24.1.2, SVG Export Plug-In . SVG Version: 6.00 Build 0)  -->
<svg version="1.1" id="レイヤー_1" xmlns="http://www.w3.org/2000/svg" xmlns:xlink="http://www.w3.org/1999/xlink" x="0px"
	 y="0px" width="156.859px" height="36.735px" viewBox="0 0 313.718 73.741" style="enable-background:new 0 0 313.718 73.741;"
	 xml:space="preserve">
<g>
	<path d="M267.329,30.22c3.187-2.692,7.053-2.184,10.449-2.89c2.884-0.599,5.976-0.345,8.967-0.24
		c3.703,0.129,6.786,3.184,7.913,7.203c1.04,3.71-0.721,6.001-3.461,8.046c-1.825,1.362-3.825,0.82-5.778,0.845
		c-1.517,0.02-3.219-0.192-3.7,1.676c-0.324,1.259-0.127,2.593,1.115,3.588c1.543,1.235,2.806,0.452,4.088-0.34
		c2.117-1.308,4.421-2.425,6.242-4.069c1.992-1.799,3.394-0.991,4.613,0.515c1.639,2.024-0.341,3.086-1.629,3.87
		c-2.073,1.263-4.369,2.16-6.696,3.271c1.864,3.18,4.885,3.713,7.745,4.349c2.357,0.524,3.937,1.649,2.901,4.069
		c-0.889,2.077-2.799,2.496-5.05,1.512c-2.926-1.28-5.542-3.022-8.162-4.792c-1.491-1.007-2.822-2.337-4.754-2.562
		c-0.417,5.954,2.136,9.142,7.779,9.822c2.643,0.318,5.276,0.715,7.919,1.029c1.407,0.167,2.727,0.411,2.72,2.214
		c-0.006,1.513-1.154,1.847-2.355,2.066c-1.468,0.269-2.933,0.767-4.403,0.779c-11.16,0.098-22.32,0.105-33.48,0.133
		c-7.617,0.019-12.703-3.975-15.232-10.754c-1.486-3.984-1.6-8.466-1.621-12.806c-0.047-10.2,1.134-20.265,3.335-30.218
		c0.25-1.129,0.538-2.271,0.591-3.418c0.318-6.807,6.499-11.012,12.748-8.347c1.619,0.69,2.851,0.752,4.536,0.586
		c10.775-1.058,21.57-1.852,32.417-1.767c5.208,0.041,9.227,2.43,12.88,5.77c0.738,0.675,1.309,1.441,1.479,2.515
		c2.31,14.536,3.15,29.114,1.141,43.754c-0.432,3.145-1.596,6.11-2.993,8.965c-0.821,1.678-1.918,3.14-3.596,4.036
		c-1.285,0.686-2.603,0.701-3.634-0.464c-0.97-1.095-0.598-2.465,0.318-3.13c4.38-3.178,3.518-7.864,3.795-12.247
		c0.716-11.328,0.399-22.631-0.917-33.901c-0.23-1.972-0.711-3.922-1.186-5.855c-0.395-1.608-1.54-2.691-3.163-2.765
		c-6.557-0.299-13.1,0.446-19.718,0.155c3.893,4.446,9.903,1.428,14.518,4.706c-3.425,5.759-10.654,0.741-14.778,5.165
		c5.904,3.848,13.693-0.837,18.913,4.837c-2.37,3.054-5.583,2.421-8.307,1.931c-6.159-1.107-12.234-0.89-18.372-0.119
		c-5.299,0.666-10.634,0.528-15.96,0.341c-1.142-0.04-2.565-0.026-2.785-1.507c-0.254-1.711,1.121-2.292,2.481-2.53
		c3.609-0.631,7.235-1.13,10.915-1.131c2.825,0,5.585-0.321,8.322-2.309c-5.807-3.26-12.384,1.319-18.434-2.724
		c3.088-2.107,6.234-2.192,9.138-2.89c2.1-0.505,4.246-0.82,6.363-1.259c1.177-0.244,2.44-0.623,2.261-2.137
		c-0.175-1.484-1.507-1.605-2.686-1.629c-1.326-0.026-2.656,0.04-3.982,0.12c-0.99,0.06-2.338,0.672-2.902,0.234
		c-3.24-2.52-6.026,0-9.063,0.306c-4.622,0.466-5.415,3.15-5.396,6.791c0.047,8.819-1.822,17.518-1.279,26.405
		c0.279,4.566-0.436,9.204-0.265,13.86c0.131,3.542,1.563,5.243,4.748,5.884c5.602,1.128,11.252,0.992,16.886,0.385
		c2.973-0.32,4.734-1.994,5.155-5.141c0.533-3.989,0.401-7.973,0.412-11.969c0.006-2.189-0.917-3.003-3.011-2.82
		c-1.657,0.145-3.33,0.124-4.982,0.298c-5.112,0.541-6.882-1.027-6.934-6.112c-0.022-2.22,0.737-4.088,1.728-6.031
		c0.673,0.455,1.072,0.574,1.127,0.784c1.634,6.187,1.635,6.287,7.927,5.862c4.343-0.294,8.666-0.115,12.982,0.169
		c2.514,0.166,3.82-0.805,4.024-3.195c0.244-2.852-2.051-2.629-3.77-2.726c-4.789-0.269-9.59,1.367-14.388-0.105
		C270.581,31.706,268.893,31.683,267.329,30.22z"/>
	<path d="M104.898,22.541c1.235,3.16,3.766,3.6,6.446,3.608c5.662,0.017,11.324-0.004,16.985-0.068
		c2.513-0.029,4.655,0.412,5.487,3.402c-0.903,1.307-2.327,1.719-3.778,1.663c-6.832-0.261-13.507,2.098-20.391,1.137
		c-1.335-0.186-3.071-0.652-3.897,1.243c-0.963,2.21,0.303,4.629,2.825,4.444c9.496-0.697,18.965,0.752,28.44,0.137
		c3.476-0.225,6.156-1.498,5.668-5.791c-0.071-0.627,0.267-1.295,0.381-1.95c1.162-6.632-0.886-8.976-7.529-8.842
		c-7.646,0.154-15.302-0.636-22.945,0.38c-1.721,0.229-3.59,0.154-5.115-1.342c1.766-2.586,4.765-2.136,7.115-3.105
		c1.217-0.502,2.648-0.549,3.783-1.167c1.398-0.762,2.049-2.293,1.717-3.815c-0.346-1.583-1.526-2.436-3.324-2.379
		c-4.158,0.13-8.328,0.001-12.477,0.256c-4.786,0.294-5.889,1.411-6.816,6.244c-0.284,1.481-0.539,2.92-2.128,4.353
		c-1.811-3.352-3.811-6.476-5.218-9.847c-1.065-2.551,2.186-6.116,5.947-6.463c6.622-0.612,13.206-1.719,19.898-1.566
		c8.324,0.19,16.649,0.354,24.973-0.144c3.189-0.191,6.347,0.092,9.107,1.956c1.394,0.942,2.953,2.095,2.255,3.983
		c-0.651,1.761-2.613,1.393-3.975,1.166c-5.802-0.967-11.603-0.964-17.426-0.415c-1.158,0.109-2.361,0.176-3.444,0.552
		c-1.458,0.506-1.787,1.886-1.754,3.262c0.035,1.449,0.621,2.494,2.269,2.771c2.332,0.392,4.662,0.385,6.965,0.019
		c9.669-1.535,15.911,10.729,14.4,16.975c-0.937,3.874-6.254,5.163-6.831,9.669c-0.028,0.219-1.519,0.32-2.335,0.354
		c-1.33,0.057-2.674,0.12-3.995-0.006c-5.717-0.548-11.033-0.213-14.069,7.493c-2.372-6.474-6.574-6.7-11.3-6.548
		c-3.968,0.127-8.459-4.292-9.121-8.659C101.012,30.997,101.466,26.565,104.898,22.541z"/>
	<path d="M176.843,12.289c1.818,1.659,1.806,3.573,1.675,5.362c-0.238,3.237,1.748,4.256,4.261,3.998
		c3.095-0.318,6.76,0.179,8.753-3.758c-3.267-1.634-6.877,0.3-10.276-1.242c1.857-2.824,4.479-2.507,6.813-2.715
		c1.932-0.172,3.993-0.239,3.709-2.821c-0.307-2.788-2.708-1.999-4.344-1.763c-2.619,0.378-5.169,1.204-7.771,1.732
		c-1.119,0.227-2.513,0.427-2.906-1.082c-0.33-1.265,0.497-2.208,1.596-2.786c1.648-0.867,3.464-1.099,5.289-1.316
		c3.932-0.469,8.068-0.583,9.578-5.157c2.05,0.274,2.71,1.803,3.841,2.711c3.103,2.49,4.679,2.271,6.809-0.967
		c2.142-3.255,3.736-3.4,5.63,0.086c1.164,2.142,2.524,2.616,4.667,2.707c2.762,0.117,5.528,0.543,7.811,2.532
		c-1.496,2.273-3.464,1.316-5.159,1.306c-1.483-0.009-2.966-0.443-4.447-0.431c-1.167,0.009-2.409,0.429-2.649,1.821
		c-0.297,1.724,0.948,2.326,2.327,2.623c1.134,0.244,2.308,0.301,3.449,0.522c1.771,0.343,3.207,1.036,2.829,3.544
		c-2.082,0.486-4.066-0.261-6.096-0.732c-1.07-0.248-2.387-0.705-2.919,0.907c-0.491,1.486-0.023,2.803,1.409,3.293
		c3.762,1.289,7.573,1.091,11.148-0.62c1.528-0.731,1.551-2.367,1.144-3.954c-0.531-2.074-1.219-4.166-0.253-6.312
		c5.196,1.296,8.521,9.324,5.533,13.397c-0.785,1.07-1.978,2.065-3.336,1.944c-4.025-0.359-7.874,1.108-11.878,0.904
		c-10.316-0.527-20.598-0.091-30.854,1.161c-3.381,0.413-6.801,0.401-8.707-3.168C171.912,21.01,173.52,15.461,176.843,12.289z
		 M200.926,16.486c-1.498,0.915-4.734-0.836-5.202,1.915c-0.491,2.881,2.539,2.359,4.354,2.666c2.167,0.367,3.657-0.661,3.906-2.811
		C204.224,16.198,202.535,16.491,200.926,16.486z M199.93,13.209c1.394-0.18,3.496,0.893,3.635-1.302
		c0.179-2.833-2.323-2.64-4.223-2.697c-1.505-0.045-3.781-0.615-3.585,1.911C195.951,13.623,198.358,12.937,199.93,13.209z"/>
	<path d="M69.432,39.867c0-1.164,0.044-2.33-0.007-3.491c-0.379-8.688-0.986-9.305-9.755-10.02
		c-4.446-0.363-7.535-2.234-7.416-4.493c0.114-2.173,3.683-4.466,7.535-4.644c2.821-0.131,5.66-0.153,8.477,0.014
		c3.825,0.226,6.665,2.439,6.161,5.73c-1.594,10.405,1.224,20.868-0.912,31.26c-1.467,7.135-3.545,9.094-10.831,9.086
		c-2.811-0.003-5.62,0.544-8.436,0.764c-4.643,0.363-6.68-0.858-8.572-5.112c-2.59-5.825-2.593-11.983-2.07-18.145
		c0.421-4.963,1.102-9.907,1.801-14.84c0.181-1.278,0.692-2.59,1.364-3.696c0.647-1.066,1.938-1.478,3.048-0.775
		c0.906,0.574,1.003,1.706,0.498,2.688c-4.553,8.858-2.58,18.145-1.906,27.369c0.217,2.975,1.876,3.903,4.501,4.187
		c3.859,0.417,7.637-0.282,11.438-0.64c2.281-0.215,3.407-1.78,3.992-3.883C69.377,47.5,69.758,43.717,69.432,39.867z"/>
	<path d="M22.024,33.814c-1.662-1.329-1.291-3.11-1.564-4.696c-0.847-4.928-2.101-5.759-6.834-4.561
		c-5.686,1.439-7.349,0.121-7.165-5.682c0.132-4.169,0.884-4.821,5.053-3.861c2.78,0.64,5.203-0.914,7.816-0.952
		c3.74-0.054,3.645-3.317,4.916-5.446c0.594-0.995,1.056-2.069,1.66-3.057c0.57-0.932,0.794-2.472,2.308-2.188
		c1.501,0.282,1.957,1.678,2.135,3.017c0.107,0.805,0.054,1.685-0.158,2.469c-1.09,4.039-0.857,6.932,3.936,8.861
		c5.319,2.14,8.164,10.912,3.082,18.4c-2.089-1.122-1.621-3.388-2.25-5.069c-0.98-2.618-1.414-5.597-5.157-5.794
		c-3.548-0.187-4.812,2.423-6.18,4.886C22.987,31.28,22.569,32.54,22.024,33.814z"/>
	<path d="M181.783,42.144c-1.714-0.546-2.382-1.987-3.342-3.087c-3.631-4.16-3.33-5.405,1.813-7.646
		c0.908-0.396,1.875-0.865,2.833-0.908c9.27-0.414,18.573-0.966,27.809-0.119c4.158,0.381,8.196,0.752,12.354,0.247
		c3.642-0.442,7.333-0.38,10.661,1.525c1.261,0.722,2.882,1.583,2.372,3.353c-0.398,1.384-1.987,1.526-3.308,1.765
		c-4.229,0.767-8.261-0.707-12.304-1.341c-10.423-1.635-20.845-0.658-31.263-0.7C185.096,35.217,184.497,39.699,181.783,42.144z"/>
	<path d="M21.499,35.793c0.087,10.464-3.303,19.106-9.331,26.765c-1.315,1.671-3.019,3.152-4.812,4.299
		c-1.937,1.239-4.592,2.607-6.288,0.227c-1.624-2.279-1.468-6.05,0.962-7.197c10.022-4.731,12.929-14.736,18.157-23.039
		C20.341,36.603,20.656,36.461,21.499,35.793z"/>
	<path d="M94.949,22.466c1.392,0.313,1.481,1.372,1.544,2.352c0.646,9.993-1.264,19.515-5.407,28.6
		c-0.405,0.889-1.052,1.715-1.742,2.418c-2.122,2.162-5.407,2.109-7.561-0.037c-2.288-2.28-1.14-4.167,0.682-5.976
		c4.799-4.766,8.62-10.182,10.409-16.769C93.815,29.594,94.273,26.002,94.949,22.466z"/>
	<path d="M187.714,54.337c-1.004-1.144-3.037-1.58-2.36-3.851c0.574-1.928,2.221-1.824,3.597-2.072
		c10.376-1.871,20.862-0.966,31.304-1.065c2.521-0.024,4.726,1.287,6.634,3.157c-1.361,2.709-3.701,2.261-5.729,2.236
		c-7.645-0.094-15.289-0.282-22.932-0.492c-3.704-0.102-7.304,0.223-10.661,1.949L187.714,54.337z"/>
	<path d="M187.566,54.198c-0.233,2.451-0.292,4.935-0.741,7.346c-0.634,3.405,1.11,4.464,4.033,4.742
		c2.881,0.273,5.507-1.157,8.33-1.154c1.451,0.002,3.381-0.37,3.9,1.371c0.587,1.967-1.566,2.178-2.735,2.86
		c-3.773,2.201-7.931,3.344-12.226,3.809c-4.277,0.464-6.261-1.185-6.653-5.383c-0.31-3.312,0.066-6.588,0.908-9.84
		c0.751-2.899,2.298-4.261,5.332-3.612L187.566,54.198z"/>
	<path d="M181.694,43.66c0.941,4.044-0.161,7.49-1.819,10.667c-2.888,5.535-7.611,9.115-13.324,11.469
		c-1.285,0.53-2.614,0.386-3.937,0.43c-1.421,0.048-2.783-0.207-3.168-1.773c-0.323-1.315-0.046-2.615,0.983-3.691
		c0.958-1.002,2.138-1.666,3.397-2.015c6.834-1.889,11.641-6.146,14.914-12.335C179.264,45.425,179.747,44.266,181.694,43.66z"/>
	<path d="M37.657,37.693c1.514,9.756-0.027,19.005-4.363,27.753c-0.611,1.233-1.76,2.965-3.374,2.478
		c-1.952-0.588-1.606-2.7-1.481-4.303C29.175,54.217,32.362,45.637,37.657,37.693z"/>
	<path d="M223.717,43.111c-3.745,1.121-7.215,1.482-10.617,0.997c-6.657-0.947-13.254-1.076-19.908-0.041
		c-1.622,0.252-4.164,1.006-4.344-1.745c-0.173-2.639,2.056-2.982,4.231-2.983c6.498-0.002,12.941-1.451,19.446-0.923
		C216.531,38.742,220.842,38.679,223.717,43.111z"/>
	<path d="M133.302,48.09c5.437,2.612,10.468,4.679,15.695,6.254c2.105,0.634,3.503,2.268,3.096,4.508
		c-0.399,2.196-2.217,3.21-4.416,3.363C142.078,62.606,133.576,54.686,133.302,48.09z"/>
	<path d="M260.89,58.177c-3.378,0.037-5.529-0.579-5.821-3.578c-0.264-2.712,1.326-3.761,3.816-4.124
		c3.916-0.572,6.704-3.421,9.992-5.259c1.133-0.633,2.205-1.873,3.543-0.863c1.651,1.246,0.465,2.915-0.144,4.016
		C269.567,53.263,265.96,57.203,260.89,58.177z"/>
	<path d="M213.309,65.097c1.168-2.044,2.806-1.889,4.18-1.676c3.898,0.605,7.802,1.28,11.62,2.252
		c2.435,0.62,4.839,1.856,4.439,5.022c-0.275,2.178-4.118,3.677-6.902,2.783C221.455,71.812,216.733,69.398,213.309,65.097z"/>
	<path d="M108.106,48.16c2.077,2.486,1.587,4.689,0.293,6.732c-1.693,2.673-3.972,4.86-6.667,6.512
		c-2.798,1.716-6.269,1.069-7.334-1.351c-1.303-2.961,1.033-4.109,2.985-5.326C100.861,52.56,104.371,50.444,108.106,48.16z"/>
	<path d="M122.305,72.346c-3.242-1.883-3.405-4.807-3.534-7.561c-0.187-3.974,0.548-7.874,1.821-11.652
		c0.27-0.801,0.784-1.513,1.654-1.672c1.019-0.186,1.678,0.73,1.725,1.399C124.425,59.294,128.009,66.009,122.305,72.346z"/>
	<path d="M197.292,56.179c3.781,0.518,7.128-0.01,10.023-2.548c1.43-1.254,2.627,0.27,3.902,1.176
		c-0.806,1.329-1.572,2.593-2.301,3.794c1.086,1.751,2.946,2.844,3.352,4.937C206.805,65.004,199.456,61.543,197.292,56.179z"/>
	<path d="M174.509,35.835c0.001,2.431-3.82,6.39-6.191,6.127c-2.014-0.223-3.097-1.602-3.111-3.727
		c-0.019-2.971,2.102-4.985,5.478-5.006C172.506,33.218,174.427,33.247,174.509,35.835z"/>
</g>
</svg>
