<svg xmlns="http://www.w3.org/2000/svg" viewBox="0 0 300 100"><defs><style>.cls-1,.cls-2,.cls-3{fill:none;stroke:#231815;}.cls-1,.cls-2,.cls-3,.cls-4{stroke-miterlimit:10;}.cls-1,.cls-4{stroke-width:0.5px;}.cls-2,.cls-3{stroke-linecap:round;}.cls-3{stroke-dasharray:0 1.99;}.cls-4{fill:#fff;stroke:#fff;}.cls-5{fill:#231815;}</style></defs><g id="枠"><line class="cls-1" x1="33.33" x2="33.33" y2="100"/><line class="cls-1" x1="66.67" x2="66.67" y2="100"/><line class="cls-1" x1="100" x2="100" y2="100"/><line class="cls-1" x1="133.33" x2="133.33" y2="100"/><line class="cls-1" x1="166.67" x2="166.67" y2="100"/><line class="cls-1" x1="200" x2="200" y2="100"/><line class="cls-1" x1="233.33" x2="233.33" y2="100"/><line class="cls-1" x1="266.67" x2="266.67" y2="100"/><line class="cls-1" x1="300" x2="300" y2="100"/></g><g id="線"><line class="cls-2" x1="191.03" y1="50.24" x2="191.03" y2="50.24"/><line class="cls-3" x1="193.03" y1="50.24" x2="207.99" y2="50.24"/><line class="cls-2" x1="208.99" y1="50.24" x2="208.99" y2="50.24"/></g><g id="文字"><path class="cls-4" d="M185.6,54.54c0,3.68,0,4.58,0,4.82s-.24.26-.47.26-.17,0-.17-.13,0-.72,0-2.05a9.91,9.91,0,0,1-1.34.76c0,.19-.08.24-.15.24s-.14-.07-.38-.71l.5-.12V55c0-.59,0-.9,0-1.17.75.07.86.12.86.2s-.05.13-.28.22v3.2l.82-.26c0-.68,0-1.54,0-2.67,0-.66,0-.94,0-1.22.77.08.88.13.88.21s-.06.13-.3.22Zm3-.54c.14-.28.2-.33.27-.33s.17,0,.39.21.26.23.26.3-.08.14-.29.23a8.12,8.12,0,0,1-1.16,3.4l0,0A5,5,0,0,0,189.81,59l0,.13a1,1,0,0,0-.67.4,5.48,5.48,0,0,1-1.44-1.28,5.42,5.42,0,0,1-2,1.46l-.08-.1a6.48,6.48,0,0,0,1.77-1.77,7.59,7.59,0,0,1-.87-3.65l-.64,0V54l.65,0Zm-1.82.21c0,.32.06.63.12.95a6.2,6.2,0,0,0,.84,2.2,9.51,9.51,0,0,0,.9-3.15Z"/><path class="cls-4" d="M190.79,55.38l-.54,0v-.29l.54,0h.39V54.07c-.28,0-.58.07-.87.09V54a9.63,9.63,0,0,0,1.91-.7c.41.3.45.37.45.43s-.1.11-.36.09l-.52.12a.19.19,0,0,1-.12.18v1h.17c.12-.14.21-.25.35-.39.52.41.54.47.54.52s-.05.09-.12.09h-.94v.81c.64.16.9.51.9.8a.28.28,0,0,1-.26.3.25.25,0,0,1-.27-.23,1.15,1.15,0,0,0-.37-.68c0,2.27,0,2.79,0,3s-.22.21-.42.21-.14,0-.14-.11,0-.73,0-2.65a6.79,6.79,0,0,1-.85,1.22l-.11-.07a8.32,8.32,0,0,0,.9-2.57Zm4.69,2.38c.14-.2.19-.22.25-.22s.14,0,.33.19.23.21.23.28-.06.13-.32.18a5.57,5.57,0,0,1-1,.68,6,6,0,0,0,1.84.31l0,.13a.63.63,0,0,0-.41.37,4.39,4.39,0,0,1-1.85-.6,8.33,8.33,0,0,1-2.72.56l0-.13a7.83,7.83,0,0,0,2.39-.7,2.91,2.91,0,0,1-.69-.83H193l-.6,0v-.29l.6,0Zm0-3.58c0,.13,0,.24,0,.35s-.16.21-.37.21c0,.07,0,.12-.19.16a2.12,2.12,0,0,1-.2.24h1c.11-.14.21-.24.33-.38.55.41.58.47.58.53s-.05.07-.12.07h-1.41a.18.18,0,0,1-.11.13v.31h.69c.09-.12.19-.23.29-.34.47.37.5.42.5.48s0,.07-.11.07h-1.37v.44h.69l.29-.33c.47.37.5.42.5.48s0,.07-.11.07h-1.37v.46h.84c.13-.14.22-.25.37-.39.52.41.54.47.54.53s0,.07-.11.07h-3.09c0,.15-.14.24-.35.24s-.15,0-.15-.12,0-.55,0-1.49v-.11a4.83,4.83,0,0,1-.58.61l-.09-.07a7.21,7.21,0,0,0,1-1.88l.39.13c0-.16,0-.32,0-.47h-.44l-.65,0v-.28l.65,0h.44c0-.3,0-.45,0-.67.65.05.73.1.73.17s-.05.12-.24.19V54H195c0-.3,0-.45,0-.67.65.05.74.1.74.17s-.05.12-.24.19V54h.39c.12-.14.22-.27.36-.41.54.42.57.49.57.55s0,.08-.09.08Zm-1,1.62v-.44h-.88l-.09.1v.34Zm-1,.21v.44h1V56Zm0,.66v.46h1v-.46Zm1.47-2c0-.1,0-.24,0-.45h-.78c0,.14,0,.26,0,.37s-.16.19-.34.2a.08.08,0,0,1,0,0c0,.06,0,.1-.23.13a1.19,1.19,0,0,1-.12.22h.92a4.46,4.46,0,0,0,.09-.59l.42.1ZM193.65,58a2.9,2.9,0,0,0,.81.67,5.8,5.8,0,0,0,.95-.67Z"/><path class="cls-4" d="M201,53.13l.29.08-2.11,6.61-.29-.07Z"/><path class="cls-4" d="M206.84,58.86h2V57.74c0-.35,0-.59,0-.87.79.07.86.12.86.21s0,.12-.28.21v.47c0,.9,0,1.36,0,1.54s-.19.24-.43.24-.16,0-.16-.12v-.35h-4.46v.39c0,.12-.19.24-.41.24s-.17-.05-.17-.15c0-.27,0-.75,0-1.83,0-.36,0-.6,0-.88.79.08.87.12.87.2s-.06.14-.29.22v1.6h1.94V56h-1.69v.19c0,.12-.19.23-.42.23s-.16,0-.16-.15,0-.76,0-1.63c0-.36,0-.6,0-.87.79.07.86.12.86.2s0,.13-.28.22v1.6h1.69V54.48c0-.59,0-.92,0-1.19.8.08.88.12.88.21s-.06.12-.29.22v2.1h1.7V54.65c0-.35,0-.58,0-.86.78.07.86.12.86.2s0,.13-.28.22v.46c0,.78,0,1.27,0,1.46s-.19.23-.43.23-.16,0-.16-.12V56h-1.7Z"/><path class="cls-4" d="M210.36,57.29a8.19,8.19,0,0,0,1.28-2.4c.64.23.7.27.7.35s-.07.11-.28.14a5.86,5.86,0,0,1-.45.74c.26.07.33.11.33.17s-.05.1-.2.18v.69c0,1.51,0,2,0,2.27s-.18.23-.42.23-.16,0-.16-.13,0-.83,0-2.36v-.56a7.88,7.88,0,0,1-.77.76Zm2.47-3c0,.25,0,.44,0,.51s-.21.21-.42.21-.14,0-.14-.12,0-.28,0-.6h-1.11l-.71,0v-.29l.71,0h1.11V54c0-.35,0-.47,0-.69.69.06.77.11.77.18s0,.11-.23.19v.46h1.39V54c0-.35,0-.47,0-.69.69.06.77.11.77.18s-.05.11-.23.19v.46h1c.14-.17.28-.33.43-.48.67.48.72.55.72.62s-.05.08-.12.08h-2c0,.28,0,.48,0,.55s-.21.22-.42.22-.14-.05-.14-.12,0-.29,0-.65Zm3.21,1.3a.19.19,0,0,1-.13.14v.81c0,1.82,0,2.21,0,2.46s-.34.61-.87.64c-.07-.31-.19-.43-.7-.56l0-.13c.24,0,.44,0,.7,0s.28-.06.28-.3V55.63H213l-.71,0v-.28l.71,0h2.72l.43-.5c.66.47.71.56.71.63s0,.09-.11.09Zm-2,.87c.1-.22.15-.26.21-.26s.14,0,.34.16.2.19.2.25-.05.1-.2.2v.35c0,.47,0,.84,0,1s-.18.23-.39.23a.12.12,0,0,1-.13-.13V58h-1v.3c0,.15-.17.24-.4.24s-.14,0-.14-.13,0-.48,0-1.28c0-.49,0-.65,0-.93a3,3,0,0,1,.65.26Zm0,.21h-.94l-.06.07v1h1Z"/><path class="cls-5" d="M185.6,54.54c0,3.68,0,4.58,0,4.82s-.24.26-.47.26-.17,0-.17-.13,0-.72,0-2.05a9.91,9.91,0,0,1-1.34.76c0,.19-.08.24-.15.24s-.14-.07-.38-.71l.5-.12V55c0-.59,0-.9,0-1.17.75.07.86.12.86.2s-.05.13-.28.22v3.2l.82-.26c0-.68,0-1.54,0-2.67,0-.66,0-.94,0-1.22.77.08.88.13.88.21s-.06.13-.3.22Zm3-.54c.14-.28.2-.33.27-.33s.17,0,.39.21.26.23.26.3-.08.14-.29.23a8.12,8.12,0,0,1-1.16,3.4l0,0A5,5,0,0,0,189.81,59l0,.13a1,1,0,0,0-.67.4,5.48,5.48,0,0,1-1.44-1.28,5.42,5.42,0,0,1-2,1.46l-.08-.1a6.48,6.48,0,0,0,1.77-1.77,7.59,7.59,0,0,1-.87-3.65l-.64,0V54l.65,0Zm-1.82.21c0,.32.06.63.12.95a6.2,6.2,0,0,0,.84,2.2,9.51,9.51,0,0,0,.9-3.15Z"/><path class="cls-5" d="M190.79,55.38l-.54,0v-.29l.54,0h.39V54.07c-.28,0-.58.07-.87.09V54a9.63,9.63,0,0,0,1.91-.7c.41.3.45.37.45.43s-.1.11-.36.09l-.52.12a.19.19,0,0,1-.12.18v1h.17c.12-.14.21-.25.35-.39.52.41.54.47.54.52s-.05.09-.12.09h-.94v.81c.64.16.9.51.9.8a.28.28,0,0,1-.26.3.25.25,0,0,1-.27-.23,1.15,1.15,0,0,0-.37-.68c0,2.27,0,2.79,0,3s-.22.21-.42.21-.14,0-.14-.11,0-.73,0-2.65a6.79,6.79,0,0,1-.85,1.22l-.11-.07a8.32,8.32,0,0,0,.9-2.57Zm4.69,2.38c.14-.2.19-.22.25-.22s.14,0,.33.19.23.21.23.28-.06.13-.32.18a5.57,5.57,0,0,1-1,.68,6,6,0,0,0,1.84.31l0,.13a.63.63,0,0,0-.41.37,4.39,4.39,0,0,1-1.85-.6,8.33,8.33,0,0,1-2.72.56l0-.13a7.83,7.83,0,0,0,2.39-.7,2.91,2.91,0,0,1-.69-.83H193l-.6,0v-.29l.6,0Zm0-3.58c0,.13,0,.24,0,.35s-.16.21-.37.21c0,.07,0,.12-.19.16a2.12,2.12,0,0,1-.2.24h1c.11-.14.21-.24.33-.38.55.41.58.47.58.53s-.05.07-.12.07h-1.41a.18.18,0,0,1-.11.13v.31h.69c.09-.12.19-.23.29-.34.47.37.5.42.5.48s0,.07-.11.07h-1.37v.44h.69l.29-.33c.47.37.5.42.5.48s0,.07-.11.07h-1.37v.46h.84c.13-.14.22-.25.37-.39.52.41.54.47.54.53s0,.07-.11.07h-3.09c0,.15-.14.24-.35.24s-.15,0-.15-.12,0-.55,0-1.49v-.11a4.83,4.83,0,0,1-.58.61l-.09-.07a7.21,7.21,0,0,0,1-1.88l.39.13c0-.16,0-.32,0-.47h-.44l-.65,0v-.28l.65,0h.44c0-.3,0-.45,0-.67.65.05.73.1.73.17s-.05.12-.24.19V54H195c0-.3,0-.45,0-.67.65.05.74.1.74.17s-.05.12-.24.19V54h.39c.12-.14.22-.27.36-.41.54.42.57.49.57.55s0,.08-.09.08Zm-1,1.62v-.44h-.88l-.09.1v.34Zm-1,.21v.44h1V56Zm0,.66v.46h1v-.46Zm1.47-2c0-.1,0-.24,0-.45h-.78c0,.14,0,.26,0,.37s-.16.19-.34.2a.08.08,0,0,1,0,0c0,.06,0,.1-.23.13a1.19,1.19,0,0,1-.12.22h.92a4.46,4.46,0,0,0,.09-.59l.42.1ZM193.65,58a2.9,2.9,0,0,0,.81.67,5.8,5.8,0,0,0,.95-.67Z"/><path class="cls-5" d="M201,53.13l.29.08-2.11,6.61-.29-.07Z"/><path class="cls-5" d="M206.84,58.86h2V57.74c0-.35,0-.59,0-.87.79.07.86.12.86.21s0,.12-.28.21v.47c0,.9,0,1.36,0,1.54s-.19.24-.43.24-.16,0-.16-.12v-.35h-4.46v.39c0,.12-.19.24-.41.24s-.17-.05-.17-.15c0-.27,0-.75,0-1.83,0-.36,0-.6,0-.88.79.08.87.12.87.2s-.06.14-.29.22v1.6h1.94V56h-1.69v.19c0,.12-.19.23-.42.23s-.16,0-.16-.15,0-.76,0-1.63c0-.36,0-.6,0-.87.79.07.86.12.86.2s0,.13-.28.22v1.6h1.69V54.48c0-.59,0-.92,0-1.19.8.08.88.12.88.21s-.06.12-.29.22v2.1h1.7V54.65c0-.35,0-.58,0-.86.78.07.86.12.86.2s0,.13-.28.22v.46c0,.78,0,1.27,0,1.46s-.19.23-.43.23-.16,0-.16-.12V56h-1.7Z"/><path class="cls-5" d="M210.36,57.29a8.19,8.19,0,0,0,1.28-2.4c.64.23.7.27.7.35s-.07.11-.28.14a5.86,5.86,0,0,1-.45.74c.26.07.33.11.33.17s-.05.1-.2.18v.69c0,1.51,0,2,0,2.27s-.18.23-.42.23-.16,0-.16-.13,0-.83,0-2.36v-.56a7.88,7.88,0,0,1-.77.76Zm2.47-3c0,.25,0,.44,0,.51s-.21.21-.42.21-.14,0-.14-.12,0-.28,0-.6h-1.11l-.71,0v-.29l.71,0h1.11V54c0-.35,0-.47,0-.69.69.06.77.11.77.18s0,.11-.23.19v.46h1.39V54c0-.35,0-.47,0-.69.69.06.77.11.77.18s-.05.11-.23.19v.46h1c.14-.17.28-.33.43-.48.67.48.72.55.72.62s-.05.08-.12.08h-2c0,.28,0,.48,0,.55s-.21.22-.42.22-.14-.05-.14-.12,0-.29,0-.65Zm3.21,1.3a.19.19,0,0,1-.13.14v.81c0,1.82,0,2.21,0,2.46s-.34.61-.87.64c-.07-.31-.19-.43-.7-.56l0-.13c.24,0,.44,0,.7,0s.28-.06.28-.3V55.63H213l-.71,0v-.28l.71,0h2.72l.43-.5c.66.47.71.56.71.63s0,.09-.11.09Zm-2,.87c.1-.22.15-.26.21-.26s.14,0,.34.16.2.19.2.25-.05.1-.2.2v.35c0,.47,0,.84,0,1s-.18.23-.39.23a.12.12,0,0,1-.13-.13V58h-1v.3c0,.15-.17.24-.4.24s-.14,0-.14-.13,0-.48,0-1.28c0-.49,0-.65,0-.93a3,3,0,0,1,.65.26Zm0,.21h-.94l-.06.07v1h1Z"/><path class="cls-5" d="M13.81,9.61h.82v.31h-.82v.41c0,.41,0,.46.45.47h.09v.27H12.62V10.8h.07c.42,0,.52-.09.52-.47V9.92H11.38V9.63l2.13-3.36h.3Zm-2.11,0h1.51V7.22Z"/><path class="cls-5" d="M21.44,6c.14-.32.19-.35.26-.35s.16,0,.38.19.27.26.27.34-.06.15-.28.25v.87c0,3,0,3.59,0,3.9,0,.53-.37.75-.92.75-.06-.34-.19-.48-.8-.62l0-.14a5.23,5.23,0,0,0,.75,0c.27,0,.33-.06.33-.33V9.2H19a2.91,2.91,0,0,1-.57,1.74,2.91,2.91,0,0,1-1.49,1l-.06-.11a3,3,0,0,0,1.16-1.1,4.73,4.73,0,0,0,.4-2.51c0-1.64,0-2.18,0-2.55A2.9,2.9,0,0,1,19.2,6ZM19.06,8.25c0,.27,0,.52,0,.73h2.45V7.65H19.06Zm0-2V7.44h2.43V6.17H19.15Z"/><path class="cls-5" d="M45.2,8.82c0-.38.07-.73.09-1.23s0-1,.06-1.25h2.41l-.12.58h-2c0,.5-.05,1-.08,1.58A1.48,1.48,0,0,1,46.57,8,1.45,1.45,0,0,1,48,9.54a1.62,1.62,0,0,1-1.7,1.64c-.72,0-1.3-.42-1.3-1a.38.38,0,1,1,.76,0,.6.6,0,0,1,0,.12.56.56,0,0,0,0,.16c0,.23.26.4.58.4.65,0,1-.44,1-1.31S47,8.4,46.42,8.4a1.27,1.27,0,0,0-1,.51Z"/><path class="cls-5" d="M54.77,6c.15-.32.2-.35.27-.35s.16,0,.37.19.27.26.27.34-.06.15-.28.25v.87c0,3,0,3.59,0,3.9,0,.53-.36.75-.92.75-.06-.34-.19-.48-.79-.62v-.14a5.23,5.23,0,0,0,.75,0c.27,0,.33-.06.33-.33V9.2H52.36a2.91,2.91,0,0,1-.57,1.74,2.91,2.91,0,0,1-1.49,1l-.06-.11a3,3,0,0,0,1.16-1.1,4.73,4.73,0,0,0,.4-2.51c0-1.64,0-2.18,0-2.55a2.9,2.9,0,0,1,.76.32ZM52.4,8.25c0,.27,0,.52,0,.73h2.44V7.65H52.4Zm0-2V7.44h2.42V6.17H52.48Z"/><path class="cls-5" d="M80.19,8.05A1.32,1.32,0,0,1,81.4,9.49a1.6,1.6,0,0,1-1.49,1.69c-1,0-1.6-.91-1.6-2.2A3.18,3.18,0,0,1,79,6.88a1.59,1.59,0,0,1,1.23-.65c.54,0,1,.31,1,.67a.38.38,0,0,1-.37.4c-.2,0-.33-.14-.42-.45s-.17-.33-.36-.33c-.63,0-1.07.93-1.07,2.23A1.43,1.43,0,0,1,80.19,8.05ZM79,9.35a2.4,2.4,0,0,0,.32,1.28.67.67,0,0,0,.57.3c.52,0,.81-.48.81-1.34S80.47,8.45,80,8.45a1,1,0,0,0-.74.4,1.18,1.18,0,0,0-.21.3Z"/><path class="cls-5" d="M88.1,6c.15-.32.2-.35.27-.35s.16,0,.38.19.26.26.26.34-.05.15-.28.25v.87c0,3,0,3.59,0,3.9,0,.53-.37.75-.92.75-.07-.34-.2-.48-.8-.62v-.14a5.32,5.32,0,0,0,.75,0c.28,0,.33-.06.33-.33V9.2H85.69a3,3,0,0,1-.56,1.74,2.93,2.93,0,0,1-1.5,1l-.06-.11a2.92,2.92,0,0,0,1.16-1.1,4.63,4.63,0,0,0,.4-2.51c0-1.64,0-2.18,0-2.55a2.76,2.76,0,0,1,.75.32ZM85.73,8.25c0,.27,0,.52,0,.73h2.44V7.65H85.73Zm0-2V7.44h2.42V6.17H85.81Z"/><path class="cls-5" d="M114.66,6.62c-1,1.83-1.44,2.91-1.44,3.8v.17c0,.37-.14.59-.4.59s-.38-.21-.38-.49a5.94,5.94,0,0,1,.8-2.08c.26-.47.39-.71.67-1.15l.35-.54h-1.43c-.61,0-.66,0-1,.91l-.21-.07L112,6.34h2.68Z"/><path class="cls-5" d="M121.44,6c.14-.32.19-.35.26-.35s.16,0,.38.19.27.26.27.34-.06.15-.28.25v.87c0,3,0,3.59,0,3.9,0,.53-.37.75-.92.75-.06-.34-.19-.48-.8-.62l0-.14a5.23,5.23,0,0,0,.75,0c.27,0,.33-.06.33-.33V9.2H119a2.91,2.91,0,0,1-.57,1.74,2.91,2.91,0,0,1-1.49,1l-.06-.11a3,3,0,0,0,1.16-1.1,4.73,4.73,0,0,0,.4-2.51c0-1.64,0-2.18,0-2.55a2.9,2.9,0,0,1,.76.32Zm-2.38,2.29c0,.27,0,.52,0,.73h2.45V7.65h-2.43Zm0-2V7.44h2.43V6.17h-2.34Z"/><path class="cls-5" d="M145.21,7.53a1.3,1.3,0,0,1,1.36-1.3,1.19,1.19,0,0,1,1.31,1A1.22,1.22,0,0,1,147,8.41a1.42,1.42,0,0,1,1,1.34,1.46,1.46,0,0,1-1.59,1.43c-.88,0-1.51-.5-1.51-1.2,0-.54.33-.93,1.1-1.3A1.24,1.24,0,0,1,145.21,7.53Zm1,1.26a1.31,1.31,0,0,0-.67,1.15.9.9,0,0,0,1,1,1,1,0,0,0,1-.93.73.73,0,0,0-.33-.66,4.13,4.13,0,0,0-.76-.41Zm.62-.47a1.24,1.24,0,0,0,.53-1,.84.84,0,0,0-1.67-.06.72.72,0,0,0,.32.62,3.19,3.19,0,0,0,.6.33Z"/><path class="cls-5" d="M154.77,6c.15-.32.2-.35.27-.35s.16,0,.37.19.27.26.27.34-.06.15-.28.25v.87c0,3,0,3.59,0,3.9,0,.53-.36.75-.92.75-.06-.34-.19-.48-.79-.62v-.14a5.23,5.23,0,0,0,.75,0c.27,0,.33-.06.33-.33V9.2h-2.46a2.91,2.91,0,0,1-.57,1.74,2.91,2.91,0,0,1-1.49,1l-.06-.11a3,3,0,0,0,1.16-1.1,4.73,4.73,0,0,0,.4-2.51c0-1.64,0-2.18,0-2.55a2.9,2.9,0,0,1,.76.32ZM152.4,8.25c0,.27,0,.52,0,.73h2.44V7.65H152.4Zm0-2V7.44h2.42V6.17h-2.34Z"/><path class="cls-5" d="M180.37,9a1.21,1.21,0,0,1-.87.35,1.33,1.33,0,0,1-1.23-1.44,1.61,1.61,0,0,1,1.51-1.68c.92,0,1.6.9,1.6,2.18,0,1.53-.87,2.77-2,2.77-.52,0-1-.31-1-.68a.41.41,0,0,1,.39-.4c.18,0,.32.14.38.39s.16.38.4.38c.46,0,.83-.52,1-1.31a7.45,7.45,0,0,0,.1-1A1.87,1.87,0,0,1,180.37,9Zm.31-.91c0-1-.34-1.59-.9-1.59S179,7,179,7.83s.25,1.12.75,1.12a1.09,1.09,0,0,0,.77-.39,1.36,1.36,0,0,0,.19-.26Z"/><path class="cls-5" d="M188.1,6c.15-.32.2-.35.27-.35s.16,0,.38.19.26.26.26.34,0,.15-.28.25v.87c0,3,0,3.59,0,3.9,0,.53-.36.75-.91.75-.07-.34-.2-.48-.8-.62v-.14a5.32,5.32,0,0,0,.75,0c.28,0,.33-.06.33-.33V9.2h-2.46a3,3,0,0,1-.56,1.74,3,3,0,0,1-1.5,1l-.06-.11a2.92,2.92,0,0,0,1.16-1.1,4.63,4.63,0,0,0,.4-2.51c0-1.64,0-2.18,0-2.55a2.73,2.73,0,0,1,.76.32Zm-2.37,2.29c0,.27,0,.52,0,.73h2.44V7.65h-2.42Zm0-2V7.44h2.42V6.17h-2.34Z"/><path class="cls-5" d="M210.05,10.06c0,.43,0,.51.13.59a1.56,1.56,0,0,0,.81.14h.11v.28h-2.82v-.28c1.07,0,1.14-.06,1.14-.67V7.58c0-.38,0-.47-.12-.52a2.23,2.23,0,0,0-1-.1V6.7a7.28,7.28,0,0,0,1.75-.51Z"/><path class="cls-5" d="M216.68,6.23c.84,0,1.56,1.14,1.56,2.47s-.72,2.48-1.56,2.48S215.1,10,215.1,8.7,215.82,6.23,216.68,6.23Zm0,4.68c.57,0,.86-.74.86-2.21s-.29-2.2-.85-2.2-.87.74-.87,2.18S216.09,10.91,216.67,10.91Z"/><path class="cls-5" d="M224.94,6c.14-.32.19-.35.26-.35s.16,0,.38.19.27.26.27.34-.06.15-.28.25v.87c0,3,0,3.59,0,3.9,0,.53-.37.75-.92.75-.06-.34-.19-.48-.8-.62l0-.14a5.23,5.23,0,0,0,.75,0c.27,0,.33-.06.33-.33V9.2h-2.46a2.91,2.91,0,0,1-.57,1.74,2.91,2.91,0,0,1-1.49,1l-.06-.11a3,3,0,0,0,1.16-1.1,4.73,4.73,0,0,0,.4-2.51c0-1.64,0-2.18,0-2.55a2.9,2.9,0,0,1,.76.32Zm-2.38,2.29c0,.27,0,.52,0,.73H225V7.65h-2.43Zm0-2V7.44H225V6.17h-2.34Z"/><path class="cls-5" d="M243.38,10.06c0,.43,0,.51.13.59a1.59,1.59,0,0,0,.81.14h.12v.28h-2.82v-.28c1.06,0,1.14-.06,1.14-.67V7.58c0-.38,0-.47-.13-.52a2.2,2.2,0,0,0-1-.1V6.7a7.1,7.1,0,0,0,1.74-.51Z"/><path class="cls-5" d="M250.38,10.06c0,.43,0,.51.13.59a1.59,1.59,0,0,0,.81.14h.12v.28h-2.82v-.28c1.06,0,1.14-.06,1.14-.67V7.58c0-.38,0-.47-.13-.52a2.2,2.2,0,0,0-1-.1V6.7a7.1,7.1,0,0,0,1.74-.51Z"/><path class="cls-5" d="M258.27,6c.15-.32.2-.35.27-.35s.16,0,.37.19.27.26.27.34-.06.15-.28.25v.87c0,3,0,3.59,0,3.9,0,.53-.36.75-.92.75-.06-.34-.19-.48-.79-.62v-.14a5.23,5.23,0,0,0,.75,0c.27,0,.33-.06.33-.33V9.2h-2.46a2.91,2.91,0,0,1-.57,1.74,2.91,2.91,0,0,1-1.49,1l-.06-.11a3,3,0,0,0,1.16-1.1,4.73,4.73,0,0,0,.4-2.51c0-1.64,0-2.18,0-2.55A2.9,2.9,0,0,1,256,6ZM255.9,8.25c0,.27,0,.52,0,.73h2.44V7.65H255.9Zm0-2V7.44h2.42V6.17H256Z"/><path class="cls-5" d="M276.71,10.06c0,.43,0,.51.14.59a1.52,1.52,0,0,0,.8.14h.12v.28H275v-.28c1.06,0,1.14-.06,1.14-.67V7.58c0-.38,0-.47-.13-.52a2.2,2.2,0,0,0-1-.1V6.7a7.1,7.1,0,0,0,1.74-.51Z"/><path class="cls-5" d="M281.77,10.78a7.54,7.54,0,0,1,1.29-1.64c.81-.84,1-1.21,1-1.76a.77.77,0,0,0-.8-.86c-.4,0-.7.22-.7.5a.51.51,0,0,0,.06.23.54.54,0,0,1,.07.27.4.4,0,0,1-.36.41.47.47,0,0,1-.42-.5,1.1,1.1,0,0,1,.38-.79,1.43,1.43,0,0,1,1.07-.41,1.3,1.3,0,0,1,1.42,1.24c0,.59-.27,1-1.21,1.72a5.48,5.48,0,0,0-1.26,1.27h1.31c.45,0,.6-.05.77-.33a3.79,3.79,0,0,0,.21-.48l.22.06-.31,1.36h-2.76Z"/><path class="cls-5" d="M291.6,6c.15-.32.2-.35.27-.35s.16,0,.38.19.26.26.26.34-.05.15-.28.25v.87c0,3,0,3.59,0,3.9,0,.53-.37.75-.92.75-.07-.34-.2-.48-.8-.62v-.14a5.32,5.32,0,0,0,.75,0c.28,0,.33-.06.33-.33V9.2h-2.46a3,3,0,0,1-.56,1.74,2.93,2.93,0,0,1-1.5,1l-.06-.11a2.92,2.92,0,0,0,1.16-1.1,4.63,4.63,0,0,0,.4-2.51c0-1.64,0-2.18,0-2.55a2.76,2.76,0,0,1,.75.32Zm-2.37,2.29c0,.27,0,.52,0,.73h2.44V7.65h-2.42Zm0-2V7.44h2.42V6.17h-2.34Z"/></g></svg>