<svg xmlns="http://www.w3.org/2000/svg" viewBox="0 0 300 100"><defs><style>.cls-1,.cls-2,.cls-3,.cls-4,.cls-5{fill:none;stroke:#231815;stroke-miterlimit:10;}.cls-1{stroke-width:0.5px;}.cls-2,.cls-3,.cls-4,.cls-5{stroke-linecap:round;}.cls-3{stroke-dasharray:0 2.08;}.cls-4{stroke-dasharray:0 2;}.cls-5{stroke-dasharray:0 1.96;}.cls-6{fill:#231815;}</style></defs><g id="枠"><line class="cls-1" y2="100"/><line class="cls-1" x1="33.33" x2="33.33" y2="100"/><line class="cls-1" x1="66.67" x2="66.67" y2="100"/><line class="cls-1" x1="100" x2="100" y2="100"/><line class="cls-1" x1="133.33" x2="133.33" y2="100"/><line class="cls-1" x1="166.67" x2="166.67" y2="100"/><line class="cls-1" x1="200" x2="200" y2="100"/><line class="cls-1" x1="233.33" x2="233.33" y2="100"/><line class="cls-1" x1="266.67" x2="266.67" y2="100"/><line class="cls-1" x1="300" x2="300" y2="100"/></g><g id="線"><line class="cls-2" x1="116.67" y1="31.68" x2="116.67" y2="31.68"/><line class="cls-3" x1="118.75" y1="31.68" x2="132.29" y2="31.68"/><line class="cls-2" x1="133.33" y1="31.68" x2="133.33" y2="31.68"/><line class="cls-2" x1="200" y1="31.68" x2="200" y2="31.68"/><line class="cls-4" x1="202" y1="31.68" x2="249" y2="31.68"/><line class="cls-2" x1="250" y1="31.68" x2="250" y2="31.68"/><line class="cls-2" x1="266.67" y1="65.4" x2="266.67" y2="65.4"/><line class="cls-5" x1="268.63" y1="65.4" x2="299.02" y2="65.4"/><line class="cls-2" x1="300" y1="65.4" x2="300" y2="65.4"/></g><g id="文字"><path class="cls-6" d="M13.81,9.61h.82v.31h-.82v.41c0,.41,0,.46.45.47h.09v.27H12.62V10.8h.07c.42,0,.52-.09.52-.47V9.92H11.38V9.63l2.13-3.36h.3Zm-2.11,0h1.51V7.22Z"/><path class="cls-6" d="M21.44,6c.14-.32.19-.35.26-.35s.16,0,.38.19.27.26.27.34-.06.15-.28.25v.87c0,3,0,3.59,0,3.9,0,.53-.37.75-.92.75-.06-.34-.2-.48-.8-.62l0-.14a5.23,5.23,0,0,0,.75,0c.27,0,.32-.06.32-.33V9.2H19a2.91,2.91,0,0,1-.57,1.74,2.91,2.91,0,0,1-1.49,1l-.07-.11a3,3,0,0,0,1.17-1.1,4.73,4.73,0,0,0,.4-2.51c0-1.64,0-2.18,0-2.55a2.76,2.76,0,0,1,.75.32ZM19.06,8.25c0,.27,0,.52,0,.73h2.44V7.65H19.06Zm0-2V7.44h2.42V6.17H19.15Z"/><path class="cls-6" d="M45.2,8.82c0-.38.07-.73.09-1.23s0-1,.06-1.25h2.41l-.12.58h-2c0,.5-.05,1-.08,1.58A1.48,1.48,0,0,1,46.57,8,1.45,1.45,0,0,1,48,9.54a1.62,1.62,0,0,1-1.7,1.64c-.72,0-1.3-.42-1.3-1a.38.38,0,1,1,.76,0,.6.6,0,0,1,0,.12.56.56,0,0,0,0,.16c0,.23.26.4.58.4.65,0,1-.44,1-1.31S47,8.4,46.42,8.4a1.27,1.27,0,0,0-1,.51Z"/><path class="cls-6" d="M54.77,6c.15-.32.2-.35.27-.35s.16,0,.37.19.27.26.27.34-.06.15-.28.25v.87c0,3,0,3.59,0,3.9,0,.53-.36.75-.92.75-.06-.34-.19-.48-.79-.62v-.14a5.23,5.23,0,0,0,.75,0c.27,0,.33-.06.33-.33V9.2H52.36a2.91,2.91,0,0,1-.57,1.74,2.91,2.91,0,0,1-1.49,1l-.06-.11a3,3,0,0,0,1.16-1.1,4.73,4.73,0,0,0,.4-2.51c0-1.64,0-2.18,0-2.55a2.9,2.9,0,0,1,.76.32ZM52.4,8.25c0,.27,0,.52,0,.73h2.45V7.65H52.4Zm0-2V7.44h2.42V6.17H52.48Z"/><path class="cls-6" d="M80.19,8.05A1.32,1.32,0,0,1,81.4,9.49a1.6,1.6,0,0,1-1.49,1.69c-1,0-1.6-.91-1.6-2.2A3.18,3.18,0,0,1,79,6.88a1.59,1.59,0,0,1,1.23-.65c.54,0,1,.31,1,.67a.38.38,0,0,1-.37.4c-.2,0-.33-.14-.42-.45s-.17-.33-.36-.33c-.63,0-1.07.93-1.07,2.23A1.43,1.43,0,0,1,80.19,8.05ZM79,9.35a2.4,2.4,0,0,0,.32,1.28.67.67,0,0,0,.57.3c.52,0,.81-.48.81-1.34S80.47,8.45,80,8.45a1,1,0,0,0-.74.4,1.18,1.18,0,0,0-.21.3Z"/><path class="cls-6" d="M88.1,6c.15-.32.2-.35.27-.35s.16,0,.38.19.26.26.26.34-.05.15-.28.25v.87c0,3,0,3.59,0,3.9,0,.53-.37.75-.92.75-.07-.34-.2-.48-.8-.62v-.14a5.32,5.32,0,0,0,.75,0c.28,0,.33-.06.33-.33V9.2H85.69a3,3,0,0,1-.56,1.74,2.93,2.93,0,0,1-1.5,1l-.06-.11a2.92,2.92,0,0,0,1.16-1.1,4.63,4.63,0,0,0,.4-2.51c0-1.64,0-2.18,0-2.55a2.76,2.76,0,0,1,.75.32ZM85.73,8.25c0,.27,0,.52,0,.73h2.44V7.65H85.73Zm0-2V7.44h2.42V6.17H85.81Z"/><path class="cls-6" d="M114.66,6.62c-1,1.83-1.44,2.91-1.44,3.8v.17c0,.37-.14.59-.4.59s-.38-.21-.38-.49a5.94,5.94,0,0,1,.8-2.08c.26-.47.39-.71.67-1.15l.35-.54h-1.43c-.61,0-.66,0-1,.91l-.21-.07L112,6.34h2.68Z"/><path class="cls-6" d="M121.44,6c.14-.32.19-.35.26-.35s.16,0,.38.19.27.26.27.34-.06.15-.28.25v.87c0,3,0,3.59,0,3.9,0,.53-.37.75-.92.75-.06-.34-.2-.48-.8-.62l0-.14a5.23,5.23,0,0,0,.75,0c.27,0,.32-.06.32-.33V9.2H119a2.91,2.91,0,0,1-.57,1.74,2.91,2.91,0,0,1-1.49,1l-.07-.11a3,3,0,0,0,1.17-1.1,4.73,4.73,0,0,0,.4-2.51c0-1.64,0-2.18,0-2.55a2.76,2.76,0,0,1,.75.32Zm-2.38,2.29c0,.27,0,.52,0,.73h2.44V7.65h-2.42Zm0-2V7.44h2.42V6.17h-2.33Z"/><path class="cls-6" d="M145.21,7.53a1.3,1.3,0,0,1,1.36-1.3,1.18,1.18,0,0,1,1.3,1A1.21,1.21,0,0,1,147,8.41a1.42,1.42,0,0,1,1,1.34,1.46,1.46,0,0,1-1.59,1.43c-.88,0-1.51-.5-1.51-1.2,0-.54.33-.93,1.1-1.3A1.24,1.24,0,0,1,145.21,7.53Zm1,1.26a1.31,1.31,0,0,0-.67,1.15.9.9,0,0,0,1,1,1,1,0,0,0,1-.93.73.73,0,0,0-.33-.66,4.49,4.49,0,0,0-.76-.41Zm.62-.47a1.24,1.24,0,0,0,.53-1,.84.84,0,0,0-1.67-.06.72.72,0,0,0,.32.62,3.19,3.19,0,0,0,.6.33Z"/><path class="cls-6" d="M154.77,6c.15-.32.2-.35.27-.35s.16,0,.37.19.27.26.27.34-.06.15-.28.25v.87c0,3,0,3.59,0,3.9,0,.53-.36.75-.92.75-.06-.34-.19-.48-.79-.62v-.14a5.23,5.23,0,0,0,.75,0c.27,0,.33-.06.33-.33V9.2h-2.46a2.91,2.91,0,0,1-.57,1.74,2.91,2.91,0,0,1-1.49,1l-.06-.11a3,3,0,0,0,1.16-1.1,4.73,4.73,0,0,0,.4-2.51c0-1.64,0-2.18,0-2.55a2.9,2.9,0,0,1,.76.32ZM152.4,8.25c0,.27,0,.52,0,.73h2.44V7.65H152.4Zm0-2V7.44h2.42V6.17h-2.34Z"/><path class="cls-6" d="M180.37,9a1.21,1.21,0,0,1-.87.35,1.33,1.33,0,0,1-1.23-1.44,1.61,1.61,0,0,1,1.51-1.68c.92,0,1.6.9,1.6,2.18,0,1.53-.87,2.77-2,2.77-.52,0-1-.31-1-.68a.41.41,0,0,1,.39-.4c.18,0,.32.14.38.39s.16.38.39.38c.47,0,.84-.52,1-1.31a7.45,7.45,0,0,0,.1-1A1.87,1.87,0,0,1,180.37,9Zm.31-.91c0-1-.34-1.59-.9-1.59S179,7,179,7.83s.25,1.12.75,1.12a1.09,1.09,0,0,0,.77-.39,1.36,1.36,0,0,0,.19-.26Z"/><path class="cls-6" d="M188.1,6c.15-.32.2-.35.27-.35s.16,0,.38.19.26.26.26.34,0,.15-.28.25v.87c0,3,0,3.59,0,3.9,0,.53-.36.75-.91.75-.07-.34-.2-.48-.8-.62v-.14a5.32,5.32,0,0,0,.75,0c.28,0,.33-.06.33-.33V9.2h-2.46a3,3,0,0,1-.56,1.74,3,3,0,0,1-1.5,1l-.06-.11a2.92,2.92,0,0,0,1.16-1.1,4.63,4.63,0,0,0,.4-2.51c0-1.64,0-2.18,0-2.55a2.73,2.73,0,0,1,.76.32Zm-2.37,2.29c0,.27,0,.52,0,.73h2.44V7.65h-2.42Zm0-2V7.44h2.42V6.17h-2.34Z"/><path class="cls-6" d="M120.61,36c0,3.67,0,4.57,0,4.82s-.23.25-.46.25S120,41,120,41s0-.71,0-2a9.78,9.78,0,0,1-1.34.75c0,.19-.07.25-.15.25s-.13-.07-.37-.72l.5-.12V36.48c0-.59,0-.91,0-1.17.75.07.85.12.85.2s-.05.13-.28.22v3.2l.82-.26c0-.68,0-1.55,0-2.67,0-.67,0-1,0-1.23.78.08.88.13.88.21s-.06.14-.3.23Zm3-.55c.14-.28.19-.32.26-.32s.18,0,.4.2.26.24.26.3-.09.15-.29.23a8.42,8.42,0,0,1-1.16,3.4l0,0a5,5,0,0,0,1.75,1.17l0,.14a.93.93,0,0,0-.66.39,5.52,5.52,0,0,1-1.45-1.28,5.19,5.19,0,0,1-2,1.47l-.08-.1a6.37,6.37,0,0,0,1.78-1.77,7.37,7.37,0,0,1-.87-3.65l-.64,0v-.28l.64,0Zm-1.83.22a7.33,7.33,0,0,0,.13.94,5.89,5.89,0,0,0,.84,2.21,9.82,9.82,0,0,0,.9-3.15Z"/><path class="cls-6" d="M125.81,36.84l-.54,0v-.29l.54,0h.38V35.54c-.28,0-.57.07-.86.09l0-.13a9.13,9.13,0,0,0,1.92-.7c.4.3.45.37.45.44s-.1.11-.37.09l-.52.12a.16.16,0,0,1-.12.17v1h.18c.11-.13.2-.24.34-.39.52.41.54.47.54.53s0,.08-.11.08h-1v.82c.64.15.91.5.91.79a.28.28,0,0,1-.27.3.26.26,0,0,1-.27-.22,1.07,1.07,0,0,0-.37-.69c0,2.27,0,2.8,0,3s-.23.21-.42.21-.14,0-.14-.11,0-.73,0-2.65a6.11,6.11,0,0,1-.85,1.21l-.1-.06a8.12,8.12,0,0,0,.89-2.58Zm4.69,2.39c.14-.2.18-.23.24-.23s.14,0,.34.19.22.21.22.28-.05.14-.31.19a5.92,5.92,0,0,1-1,.68,5.93,5.93,0,0,0,1.83.3l0,.14a.59.59,0,0,0-.4.37,4.69,4.69,0,0,1-1.86-.6,8.48,8.48,0,0,1-2.72.56l0-.13a8.43,8.43,0,0,0,2.39-.7,2.76,2.76,0,0,1-.69-.83H128l-.59,0v-.29l.59,0Zm0-3.59c0,.14,0,.25,0,.36s-.16.2-.36.2c0,.08,0,.13-.2.16a2.07,2.07,0,0,1-.19.25h1c.11-.14.2-.25.33-.39.54.42.57.47.57.54s0,.07-.11.07h-1.42A.16.16,0,0,1,130,37v.3h.7l.29-.34c.47.38.5.42.5.49s-.05.07-.12.07H130v.44h.7a4.38,4.38,0,0,1,.29-.34c.47.37.5.42.5.49s-.05.07-.12.07H130v.45h.84l.37-.38c.52.41.55.47.55.53s0,.07-.11.07h-3.09c0,.15-.15.24-.35.24s-.16,0-.16-.13,0-.55,0-1.48v-.12a5,5,0,0,1-.58.62l-.1-.08a7,7,0,0,0,1-1.87l.39.12c0-.15,0-.31,0-.47h-.44l-.64,0v-.29l.64,0h.44c0-.31,0-.45,0-.68.65.06.73.1.73.18s-.05.11-.24.18v.32H130c0-.31,0-.45,0-.68.65.06.73.1.73.18s0,.11-.24.18v.32h.39c.12-.14.23-.28.37-.42.54.43.57.5.57.56s0,.07-.09.07Zm-1,1.62v-.43h-.88l-.09.09v.34Zm-1,.22v.44h1v-.44Zm0,.66v.45h1v-.45Zm1.46-2c0-.11,0-.25,0-.46h-.78c0,.15,0,.27,0,.37s-.15.2-.33.21v0c0,.06,0,.1-.22.13l-.13.22h.93c0-.2.07-.41.09-.6l.41.11Zm-1.31,3.35a3.09,3.09,0,0,0,.82.66,6.2,6.2,0,0,0,1-.66Z"/><path class="cls-6" d="M120.86,24.28c.13-.27.19-.31.26-.31s.14,0,.33.17.25.23.25.29,0,.14-.23.23a26.45,26.45,0,0,1-.15,3.13c-.12.83-.41,1.2-1.24,1.24-.06-.33-.18-.45-.65-.56v-.14a5.92,5.92,0,0,0,.71.05c.36,0,.52-.16.62-.72a23,23,0,0,0,.15-3.16l-.92,0a9.33,9.33,0,0,1-.38,2.77,3.69,3.69,0,0,1-1.42,1.94l-.1-.08a4.56,4.56,0,0,0,1.06-2,12,12,0,0,0,.28-2.63l-.48,0-.67.05v-.29l.67,0,.48,0v-.23c0-.61,0-.95,0-1.32.75.08.82.13.82.22s0,.12-.24.21V24.3Zm3-.23c.12-.27.17-.32.24-.32s.14,0,.35.19.25.24.25.31-.06.14-.24.22v.63c0,2.83,0,3.38,0,3.65s-.24.23-.45.23a.13.13,0,0,1-.15-.13v-.52h-1.13v.58c0,.16-.21.26-.43.26s-.16-.06-.16-.14c0-.26,0-1.07,0-4.17,0-.39,0-.73,0-1.07a2.13,2.13,0,0,1,.71.28Zm0,.22h-1l-.09.09V28.1h1.13Z"/><path class="cls-6" d="M125.27,25.18l.25,0c.48,0,.75.24.75.49s-.11.34-.29.34-.2-.06-.27-.22a.93.93,0,0,0-.46-.46Zm2.11-1.64-1,3.62a4,4,0,0,0-.18.89c0,.42.17.59.17.82a.35.35,0,0,1-.38.39.3.3,0,0,1-.31-.33c0-.15,0-.36,0-.65s-.07-.38-.41-.46V27.7c.3,0,.4,0,.55-.44l1.39-3.78Zm-1.76-.49c.76,0,1,.31,1,.61a.3.3,0,0,1-.59.09,1.1,1.1,0,0,0-.44-.57Zm4.95,3.37c.1-.24.15-.28.23-.28s.13,0,.33.17.23.22.23.29-.07.13-.24.21v2h0c.09-.15.16-.27.29-.45.4.45.42.51.42.58s0,.09-.11.09h-4.62l-.6,0v-.28l.6,0h.18v-1.6c0-.46,0-.68,0-1a3.85,3.85,0,0,1,.64.24Zm-.13-3.12c.12-.23.18-.27.24-.27s.14,0,.3.16.23.22.23.28-.05.13-.21.21v.58c0,.71,0,1.21,0,1.43s-.19.24-.41.24-.14,0-.14-.12v-.19h-2.39v.12c0,.16-.16.26-.39.26s-.15-.05-.15-.13,0-.79,0-1.69c0-.59,0-.85,0-1.12a2.88,2.88,0,0,1,.63.24Zm-2.59,3.44v2h.57V26.64h-.48Zm2.63-3.22h-2.31l-.08.09v.73h2.39Zm0,1h-2.39v.86h2.39Zm-1,4.21V26.64H129a.17.17,0,0,1-.13.14v2Zm1.08,0V26.64h-.47a.16.16,0,0,1-.12.14v2Z"/><path class="cls-6" d="M220.61,36c0,3.67,0,4.57,0,4.82s-.23.25-.46.25S220,41,220,41s0-.71,0-2a9.78,9.78,0,0,1-1.34.75c0,.19-.07.25-.15.25s-.13-.07-.37-.72l.5-.12V36.48c0-.59,0-.91,0-1.17.75.07.85.12.85.2s0,.13-.28.22v3.2l.82-.26c0-.68,0-1.55,0-2.67,0-.67,0-1,0-1.23.78.08.88.13.88.21s-.06.14-.3.23Zm3-.55c.14-.28.19-.32.26-.32s.18,0,.4.2.26.24.26.3-.09.15-.29.23a8.42,8.42,0,0,1-1.16,3.4l0,0a5,5,0,0,0,1.75,1.17l0,.14a.93.93,0,0,0-.66.39,5.52,5.52,0,0,1-1.45-1.28,5.19,5.19,0,0,1-2,1.47l-.08-.1a6.37,6.37,0,0,0,1.78-1.77,7.48,7.48,0,0,1-.87-3.65l-.64,0v-.28l.64,0Zm-1.83.22c0,.32.06.63.13.94a5.89,5.89,0,0,0,.84,2.21,9.82,9.82,0,0,0,.9-3.15Z"/><path class="cls-6" d="M225.81,36.84l-.54,0v-.29l.54,0h.38V35.54c-.28,0-.57.07-.86.09V35.5a9.25,9.25,0,0,0,1.91-.7c.4.3.45.37.45.44s-.1.11-.37.09l-.52.12a.16.16,0,0,1-.12.17v1h.18c.11-.13.2-.24.34-.39.52.41.54.47.54.53s0,.08-.11.08h-1v.82c.64.15.91.5.91.79a.28.28,0,0,1-.27.3.26.26,0,0,1-.27-.22,1.07,1.07,0,0,0-.37-.69c0,2.27.05,2.8.05,3s-.23.21-.42.21-.14,0-.14-.11,0-.73,0-2.65a6.11,6.11,0,0,1-.85,1.21l-.1-.06a8.12,8.12,0,0,0,.89-2.58Zm4.69,2.39c.14-.2.18-.23.24-.23s.14,0,.34.19.22.21.22.28-.05.14-.31.19a5.92,5.92,0,0,1-1,.68,5.93,5.93,0,0,0,1.83.3l0,.14a.59.59,0,0,0-.4.37,4.69,4.69,0,0,1-1.86-.6,8.48,8.48,0,0,1-2.72.56l0-.13a8.43,8.43,0,0,0,2.39-.7,2.76,2.76,0,0,1-.69-.83H228l-.59,0v-.29l.59,0Zm0-3.59c0,.14,0,.25,0,.36s-.16.2-.36.2c0,.08,0,.13-.2.16a2.07,2.07,0,0,1-.19.25h1c.11-.14.2-.25.33-.39.54.42.57.47.57.54s0,.07-.11.07h-1.42A.16.16,0,0,1,230,37v.3h.7l.29-.34c.47.38.5.42.5.49s-.05.07-.12.07H230v.44h.7a4.38,4.38,0,0,1,.29-.34c.47.37.5.42.5.49s-.05.07-.12.07H230v.45h.84l.37-.38c.52.41.55.47.55.53s0,.07-.11.07h-3.09c0,.15-.15.24-.35.24s-.16,0-.16-.13,0-.55,0-1.48v-.12a5,5,0,0,1-.58.62l-.1-.08a7,7,0,0,0,1-1.87l.39.12c0-.15,0-.31,0-.47h-.44l-.64,0v-.29l.64,0h.44c0-.31,0-.45,0-.68.65.06.73.1.73.18s-.05.11-.24.18v.32H230c0-.31,0-.45,0-.68.65.06.73.1.73.18s0,.11-.24.18v.32h.4a4.48,4.48,0,0,1,.36-.42c.54.43.57.5.57.56s0,.07-.09.07Zm-1,1.62v-.43h-.88l-.09.09v.34Zm-1,.22v.44h1v-.44Zm0,.66v.45h1v-.45Zm1.46-2c0-.11,0-.25,0-.46h-.78c0,.15,0,.27,0,.37s-.15.2-.33.21v0c0,.06,0,.1-.22.13l-.13.22h.93c0-.2.07-.41.09-.6l.41.11Zm-1.31,3.35a3.09,3.09,0,0,0,.82.66,6.2,6.2,0,0,0,1-.66Z"/><path class="cls-6" d="M221.8,23.33a.2.2,0,0,1-.12.15v.27h2.21c.15-.24.19-.28.25-.28s.14,0,.37.23.25.24.25.31-.07.16-.37.2a4.51,4.51,0,0,1-.6.48l-.11-.07a3.93,3.93,0,0,0,.22-.66h-2.22c0,.85,0,1.24,0,1.46s-.21.23-.41.23-.16,0-.16-.12c0-.24,0-.66,0-1.57H219v.15c0,.51-.26.73-.53.73a.27.27,0,0,1-.29-.27.45.45,0,0,1,.21-.35.81.81,0,0,0,.33-.75h.13a1.63,1.63,0,0,1,.1.29h2.18v-.42h-1.65l-.7,0v-.29l.7,0h3.68c.14-.16.27-.3.42-.45.6.46.66.53.66.58s-.05.09-.12.09Zm-2.29,3.49h-.33v.11c0,.14-.16.22-.34.22s-.15,0-.15-.11,0-.45,0-1.06c0-.17,0-.36,0-.55a2.4,2.4,0,0,1,.56.21h1c.08-.2.13-.25.19-.25s.14,0,.3.16.19.18.19.24-.06.12-.2.19v.14c0,.3,0,.56,0,.67s-.17.21-.34.21-.14-.05-.14-.12v-.06h-.18A.15.15,0,0,1,220,27v.54h.29a4.26,4.26,0,0,1,.3-.32c.42.35.46.4.46.47s0,.07-.1.07h-1v.78c.42-.05.82-.12,1.24-.2l0,.13a17.42,17.42,0,0,1-2.43.67c0,.15-.09.2-.16.2s-.13-.05-.33-.64l.37,0v-.59c0-.26,0-.44,0-.66.62.06.69.1.69.17s0,.12-.23.19v.84l.41,0Zm-.1-1.85h.87l.5,0v.29l-.5,0h-.87l-.49,0v-.29Zm.84.88h-1l-.08.09v.66h1.07Zm-.43-1.49h.46l.5,0v.29l-.5,0h-.46l-.49,0v-.29Zm3.53,1.44c.13-.21.18-.25.25-.25s.1,0,.29.17.22.21.22.27-.06.13-.3.17a4.87,4.87,0,0,1-.61.68,6,6,0,0,0,1.66.37l0,.12a.68.68,0,0,0-.44.37,5,5,0,0,1-1.53-.59,5.78,5.78,0,0,1-.86.52.5.5,0,0,1,.19.1h1.3c.07-.15.12-.19.17-.19s.12,0,.3.15.2.17.2.22,0,.11-.18.18v.15c0,.41,0,.69,0,.82s-.18.21-.36.21-.15-.05-.15-.12V29h-1.4v.1c0,.13-.14.23-.35.23s-.15,0-.15-.12,0-.45,0-1.13V27.8a8.06,8.06,0,0,1-1.17.37l0-.12a6.4,6.4,0,0,0,2.13-1.19,2.79,2.79,0,0,1-.54-.65,5.57,5.57,0,0,1-1.08.79l-.09-.1a4.46,4.46,0,0,0,1.26-1.63c.5.16.6.21.6.29s-.08.11-.25.13l-.08.11Zm-.81-1.44H223l.49,0v.29l-.49,0h-.45l-.49,0v-.29Zm0,.61h.82l.49,0v.29l-.49,0h-.82l-.49,0v-.29Zm-.37,3-.07.09v.74h1.4v-.83Zm0-1.92a.46.46,0,0,0-.07.07,2.22,2.22,0,0,0,.67.55,4.38,4.38,0,0,0,.52-.62Z"/><path class="cls-6" d="M225.85,25.27l-.6,0V25l.6,0h.51v-.84c0-.59,0-.89,0-1.15.71.07.81.12.81.2s0,.12-.26.21v1.58H227a5.48,5.48,0,0,1,.4-.44c.51.44.57.52.57.58s0,.07-.1.07h-1v2.31c.35,0,.7-.11,1-.18l0,.13a15.66,15.66,0,0,1-2.19.78c-.06.18-.12.23-.19.23s-.14-.07-.34-.75l1.15-.13V25.27Zm2.77.52v2.53c0,.22.09.27,1.08.27s1.29-.07,1.41-.28a4.1,4.1,0,0,0,.31-.84l.12,0c0,.32-.08.7-.08.85s.24.13.24.31-.4.43-2,.43c-1.38,0-1.63-.08-1.63-.52,0-.2,0-.81,0-2.56l-.11.05-.57.27-.11-.27.6-.2.19-.09v-.82c0-.56,0-.88,0-1.16.7.09.79.14.79.22s-.05.12-.25.2v1.35l.73-.3V24.12c0-.58,0-.91,0-1.17.74.07.82.12.82.2s0,.13-.27.2V25l.81-.33c.08-.26.15-.34.22-.34s.14,0,.33.15.24.19.24.26-.05.13-.22.23a14,14,0,0,1-.09,2.08c-.07.5-.3.7-.75.72,0-.28-.14-.37-.42-.46v-.12l.38,0c.17,0,.25-.07.28-.31a12.8,12.8,0,0,0,.09-2l-.87.36c0,1.86,0,2.41,0,2.62s-.2.23-.42.23-.15,0-.15-.12c0-.26,0-.83,0-2.52Z"/><path class="cls-6" d="M280.79,69.72c0,3.68,0,4.58,0,4.82s-.24.26-.47.26-.17,0-.17-.13,0-.72,0-2a9.91,9.91,0,0,1-1.34.76c0,.19-.08.24-.15.24s-.14-.06-.37-.71l.49-.12v-2.6a11.57,11.57,0,0,0,0-1.17c.75.07.86.12.86.21s-.05.12-.28.21v3.2l.82-.25c0-.68,0-1.55,0-2.67,0-.67,0-1,0-1.23.78.08.88.13.88.21s-.06.13-.3.23Zm3-.54c.13-.28.19-.32.26-.32s.18,0,.39.2.26.24.26.3-.08.15-.28.23a8.26,8.26,0,0,1-1.17,3.4l0,0A4.92,4.92,0,0,0,285,74.2l0,.13a1,1,0,0,0-.67.4,5.64,5.64,0,0,1-1.44-1.28,5.06,5.06,0,0,1-2,1.46l-.08-.09A6.25,6.25,0,0,0,282.58,73a7.54,7.54,0,0,1-.87-3.65l-.63,0v-.29l.64,0Zm-1.83.21a9.48,9.48,0,0,0,.12,1,6.32,6.32,0,0,0,.84,2.21,9.65,9.65,0,0,0,.91-3.16Z"/><path class="cls-6" d="M286,70.56l-.54,0v-.28l.54,0h.39V69.25a8.39,8.39,0,0,1-.86.1l0-.13a9,9,0,0,0,1.91-.7c.41.3.45.37.45.43s-.1.12-.36.09-.33.08-.52.12a.19.19,0,0,1-.12.18v1H287c.11-.13.2-.24.34-.39.52.41.54.47.54.52s0,.09-.11.09h-.95v.82c.64.15.9.5.9.79a.28.28,0,0,1-.26.3.26.26,0,0,1-.27-.22,1.17,1.17,0,0,0-.37-.69c0,2.27,0,2.79,0,3s-.22.21-.42.21-.14,0-.14-.12,0-.72,0-2.64a6.56,6.56,0,0,1-.85,1.21l-.1-.07a8.48,8.48,0,0,0,.89-2.57ZM290.67,73c.15-.21.19-.23.25-.23s.14,0,.34.19.22.21.22.28-.06.13-.31.18a5.92,5.92,0,0,1-1,.68,5.85,5.85,0,0,0,1.83.31l0,.13a.64.64,0,0,0-.41.38,4.54,4.54,0,0,1-1.85-.61,8.33,8.33,0,0,1-2.72.56l0-.12a8.33,8.33,0,0,0,2.39-.7,2.65,2.65,0,0,1-.68-.84h-.45l-.6,0v-.29l.6,0Zm0-3.59c0,.13,0,.25,0,.36s-.16.2-.36.2c0,.08,0,.13-.2.16s-.12.16-.2.25h1l.33-.39c.55.41.58.47.58.53s0,.07-.11.07h-1.42a.2.2,0,0,1-.11.14V71h.69c.09-.11.19-.23.3-.34.47.37.49.42.49.48s0,.08-.11.08h-1.37v.44h.69a3.17,3.17,0,0,1,.3-.34c.47.37.49.42.49.48s0,.07-.11.07h-1.37v.46H291c.13-.14.22-.25.37-.39.52.42.55.47.55.54s-.05.07-.12.07h-3.08c0,.14-.15.23-.35.23s-.16,0-.16-.12,0-.55,0-1.49V71c-.19.22-.39.44-.58.62l-.1-.08a6.92,6.92,0,0,0,1-1.88l.4.13c0-.16,0-.32,0-.47h-.44l-.65,0v-.28l.65,0h.44c0-.3,0-.45,0-.67.65.06.73.1.73.18s-.05.11-.24.18v.31h.78a6.64,6.64,0,0,0,0-.67c.65.06.74.1.74.18s-.05.11-.24.18v.31H291c.12-.14.23-.27.37-.41.54.43.56.5.56.55s0,.08-.09.08Zm-1,1.62v-.44h-.87l-.09.1V71Zm-1,.22v.44h1V71.2Zm0,.65v.46h1v-.46Zm1.46-2c0-.11,0-.25,0-.46h-.77c0,.15,0,.27,0,.37s-.15.2-.34.2a.09.09,0,0,1,0,0s-.05.09-.22.12l-.13.23h.93c0-.21.07-.42.09-.6a2.68,2.68,0,0,1,.41.11Zm-1.31,3.34a2.9,2.9,0,0,0,.81.67,4.92,4.92,0,0,0,1-.67Z"/><path class="cls-6" d="M280.62,57.58l-1.14,2.71a1.4,1.4,0,0,0-.13.58c0,.24.15.55.15.82a.37.37,0,0,1-.41.42.32.32,0,0,1-.3-.35c0-.18.07-.43.07-.7s-.1-.3-.41-.36v-.11c.32,0,.42-.07.62-.43l1.39-2.65Zm-1.9-.42c.72.05,1.09.35,1.09.68a.34.34,0,0,1-.32.37.3.3,0,0,1-.3-.23,1.24,1.24,0,0,0-.52-.7ZM280,59.57a9.67,9.67,0,0,0,2.08-3c.68.19.75.25.75.33s-.05.11-.26.15a4.92,4.92,0,0,0,2.52,1.89l0,.13a.74.74,0,0,0-.56.36,4.85,4.85,0,0,1-2.05-2.25,7.86,7.86,0,0,1-2.35,2.5Zm3.5.36c.12-.26.17-.3.24-.3s.14,0,.34.18.23.22.23.29-.06.14-.24.21v.36c0,.51,0,.77,0,.95,0,.37-.27.59-.77.59-.05-.3-.16-.43-.5-.52v-.13a3.5,3.5,0,0,0,.49,0c.16,0,.2-.06.2-.21V60.15h-1.09a.21.21,0,0,1-.12.14v.57c0,1.39,0,1.72,0,1.86s-.21.24-.42.24-.16-.05-.16-.14,0-.63,0-2v-.71h-.85l-.7,0v-.29l.7,0Zm-1-1c.12-.15.26-.3.4-.45.59.47.62.52.62.58s0,.09-.11.09h-1.63l-.56,0v-.29l.56,0Z"/><path class="cls-6" d="M290.86,58.46c.14-.16.24-.29.39-.44.57.44.62.5.62.57s0,.09-.11.09H290a6.23,6.23,0,0,0,.41,2,8.57,8.57,0,0,0,.52-1.53c.62.19.7.23.7.31s-.05.12-.27.16a5.91,5.91,0,0,1-.71,1.59,5.24,5.24,0,0,0,.51.7.34.34,0,0,0,.24.14s.09,0,.14-.12a2.76,2.76,0,0,0,.24-.51l.13,0a4.34,4.34,0,0,0-.12.78c0,.14.12.22.12.38a.25.25,0,0,1-.29.27,1.07,1.07,0,0,1-.69-.4,4.05,4.05,0,0,1-.62-.81A4.91,4.91,0,0,1,288.66,63l-.07-.11a5.3,5.3,0,0,0,1.48-1.58c-.09-.21-.17-.42-.24-.64a8.39,8.39,0,0,1-.35-2h-2.84l-.08.09v1.08a3.88,3.88,0,0,1-1,3.07l-.11-.08a5.57,5.57,0,0,0,.6-3c0-1.09,0-1.29,0-1.59a3.11,3.11,0,0,1,.68.25h2.81c0-.15,0-.3,0-.45a.61.61,0,0,1-.35.09c-.1,0-.14-.06-.14-.12s0-.26,0-.51h-1.17c0,.26,0,.44,0,.54s-.19.22-.42.22a.11.11,0,0,1-.13-.12c0-.09,0-.29,0-.64h-1l-.71,0v-.29l.71,0h1v-.09c0-.27,0-.39,0-.61.71.07.77.12.77.19s0,.1-.23.18v.33H289v-.09c0-.26,0-.38,0-.6.7.06.77.11.77.18s-.05.11-.24.19v.32h1.28a6.29,6.29,0,0,1,.43-.47c.65.47.69.54.69.61s0,.08-.1.08h-2.29c0,.13,0,.27,0,.39.59.08.65.13.65.2s0,.12-.21.17v.23Zm-3.46,4c0,.13-.19.21-.35.21s-.15,0-.15-.13,0-.53,0-2.4c0-.57,0-.77,0-1.06a3.57,3.57,0,0,1,.58.22h1.08l.33-.37c.48.38.52.45.52.5s0,.09-.11.09h-.79a.13.13,0,0,1-.11.13v.48h.41c.08-.18.13-.22.17-.22s.12,0,.28.15.19.17.19.22,0,.1-.17.17v.18c0,.22,0,.38,0,.5s-.15.19-.33.19-.14,0-.14-.11v0h-.32c0,.07,0,.1-.11.13v.56h.25q.15-.18.33-.36c.5.39.52.44.52.49s0,.09-.11.09h-2Zm.55-2.33V59.5h-.49l-.06.07v.54Zm-.55.22v.6h1.44v-.6Zm.55,1.51v-.69h-.55v.69Zm2.16-4.24c.56.07.78.3.78.52a.27.27,0,0,1-.26.27c-.12,0-.19-.06-.23-.21a.75.75,0,0,0-.36-.47Z"/><path class="cls-6" d="M210.05,10.06c0,.43,0,.51.13.59a1.56,1.56,0,0,0,.81.14h.11v.28h-2.82v-.28c1.07,0,1.14-.06,1.14-.67V7.58c0-.38,0-.47-.12-.52a2.23,2.23,0,0,0-1-.1V6.7a7.28,7.28,0,0,0,1.75-.51Z"/><path class="cls-6" d="M216.68,6.23c.84,0,1.56,1.14,1.56,2.47s-.72,2.48-1.56,2.48S215.1,10,215.1,8.7,215.82,6.23,216.68,6.23Zm0,4.68c.57,0,.86-.74.86-2.21s-.29-2.2-.85-2.2-.87.74-.87,2.18S216.09,10.91,216.67,10.91Z"/><path class="cls-6" d="M224.94,6c.14-.32.19-.35.26-.35s.16,0,.38.19.27.26.27.34-.06.15-.28.25v.87c0,3,0,3.59,0,3.9,0,.53-.37.75-.92.75-.06-.34-.19-.48-.8-.62l0-.14a5.23,5.23,0,0,0,.75,0c.27,0,.33-.06.33-.33V9.2h-2.46a2.91,2.91,0,0,1-.57,1.74,2.91,2.91,0,0,1-1.49,1l-.06-.11a3,3,0,0,0,1.16-1.1,4.73,4.73,0,0,0,.4-2.51c0-1.64,0-2.18,0-2.55a2.9,2.9,0,0,1,.76.32Zm-2.38,2.29c0,.27,0,.52,0,.73H225V7.65h-2.43Zm0-2V7.44H225V6.17h-2.34Z"/><path class="cls-6" d="M243.38,10.06c0,.43,0,.51.13.59a1.59,1.59,0,0,0,.81.14h.12v.28h-2.82v-.28c1.06,0,1.14-.06,1.14-.67V7.58c0-.38,0-.47-.13-.52a2.2,2.2,0,0,0-1-.1V6.7a7.1,7.1,0,0,0,1.74-.51Z"/><path class="cls-6" d="M250.38,10.06c0,.43,0,.51.13.59a1.59,1.59,0,0,0,.81.14h.12v.28h-2.82v-.28c1.06,0,1.14-.06,1.14-.67V7.58c0-.38,0-.47-.13-.52a2.2,2.2,0,0,0-1-.1V6.7a7.1,7.1,0,0,0,1.74-.51Z"/><path class="cls-6" d="M258.27,6c.15-.32.2-.35.27-.35s.16,0,.37.19.27.26.27.34-.06.15-.28.25v.87c0,3,0,3.59,0,3.9,0,.53-.36.75-.92.75-.06-.34-.19-.48-.79-.62v-.14a5.23,5.23,0,0,0,.75,0c.27,0,.33-.06.33-.33V9.2h-2.46a2.91,2.91,0,0,1-.57,1.74,2.91,2.91,0,0,1-1.49,1l-.06-.11a3,3,0,0,0,1.16-1.1,4.73,4.73,0,0,0,.4-2.51c0-1.64,0-2.18,0-2.55A2.9,2.9,0,0,1,256,6ZM255.9,8.25c0,.27,0,.52,0,.73h2.44V7.65H255.9Zm0-2V7.44h2.42V6.17H256Z"/><path class="cls-6" d="M276.71,10.06c0,.43,0,.51.14.59a1.52,1.52,0,0,0,.8.14h.12v.28H275v-.28c1.06,0,1.14-.06,1.14-.67V7.58c0-.38,0-.47-.13-.52a2.2,2.2,0,0,0-1-.1V6.7a7.1,7.1,0,0,0,1.74-.51Z"/><path class="cls-6" d="M281.77,10.78a7.54,7.54,0,0,1,1.29-1.64c.81-.84,1-1.21,1-1.76a.77.77,0,0,0-.8-.86c-.4,0-.7.22-.7.5a.51.51,0,0,0,.06.23.54.54,0,0,1,.07.27.4.4,0,0,1-.36.41.47.47,0,0,1-.42-.5,1.1,1.1,0,0,1,.38-.79,1.43,1.43,0,0,1,1.07-.41,1.3,1.3,0,0,1,1.42,1.24c0,.59-.27,1-1.21,1.72a5.48,5.48,0,0,0-1.26,1.27h1.31c.45,0,.6-.05.77-.33a3.79,3.79,0,0,0,.21-.48l.22.06-.31,1.36h-2.76Z"/><path class="cls-6" d="M291.6,6c.15-.32.2-.35.27-.35s.16,0,.38.19.26.26.26.34-.05.15-.28.25v.87c0,3,0,3.59,0,3.9,0,.53-.37.75-.92.75-.07-.34-.2-.48-.8-.62v-.14a5.32,5.32,0,0,0,.75,0c.28,0,.33-.06.33-.33V9.2h-2.46a3,3,0,0,1-.56,1.74,2.93,2.93,0,0,1-1.5,1l-.06-.11a2.92,2.92,0,0,0,1.16-1.1,4.63,4.63,0,0,0,.4-2.51c0-1.64,0-2.18,0-2.55a2.76,2.76,0,0,1,.75.32Zm-2.37,2.29c0,.27,0,.52,0,.73h2.44V7.65h-2.42Zm0-2V7.44h2.42V6.17h-2.34Z"/></g></svg>